<svg width="178" height="40" viewBox="0 0 178 40" fill="none" xmlns="http://www.w3.org/2000/svg">
<g clip-path="url(#clip0_80_382)">
<path d="M55.21 39.7199V0.779941H57.32V6.85994C57.5692 6.58924 57.7997 6.30191 58.01 5.99994C58.8732 4.20575 60.2302 2.6949 61.9217 1.64458C63.6132 0.594263 65.5691 0.0480308 67.56 0.0699421C72.37 -0.0700579 76.29 1.70994 78.56 5.99994C80.0235 8.66264 80.8289 11.6368 80.9089 14.6741C80.9889 17.7115 80.3413 20.7239 79.02 23.4599C76.87 28.2599 71.58 30.6499 65.91 29.7699C64.1471 29.6213 62.4496 29.0326 60.9733 28.0577C59.497 27.0828 58.289 25.7529 57.46 24.1899V39.6799L55.21 39.7199ZM57.32 14.5499L57.79 19.1299C58.63 24.3299 61.7 27.4099 66.54 27.9799C68.808 28.3552 71.1359 27.9311 73.1258 26.7802C75.1158 25.6292 76.6443 23.8229 77.45 21.6699C78.3782 19.456 78.8252 17.07 78.7614 14.6702C78.6976 12.2703 78.1245 9.91148 77.08 7.74994C76.219 5.81991 74.7531 4.22267 72.9038 3.1997C71.0546 2.17674 68.9225 1.78367 66.83 2.07994C64.8665 2.224 62.9964 2.97516 61.4788 4.22937C59.9612 5.48357 58.8713 7.17872 58.36 9.07994C57.9221 10.8792 57.5882 12.7022 57.36 14.5399L57.32 14.5499ZM124.07 19.8499C123.748 22.5905 122.442 25.121 120.395 26.9713C118.348 28.8216 115.699 29.8658 112.94 29.9099C104.08 30.3599 99.94 24.4799 99.26 17.6899C98.7997 13.988 99.4032 10.2314 101 6.85994C102.101 4.55256 103.911 2.65723 106.165 1.45024C108.419 0.243241 110.999 -0.212326 113.53 0.149944C115.935 0.35124 118.216 1.30484 120.049 2.87545C121.881 4.44606 123.173 6.55392 123.74 8.89994C124.193 11.0397 124.527 13.2031 124.74 15.3799H101.45C101.02 21.5299 104.32 26.4799 109.01 27.6699C114.85 29.1099 119.84 26.5799 121.65 21.0299C122.05 19.5999 122.79 19.3999 124.08 19.8099L124.07 19.8499ZM101.43 13.4499H122.24C122.11 6.88994 118.03 2.11994 112.49 2.06994C106.24 1.96994 101.7 6.53994 101.43 13.4499ZM128.37 19.9899H130.37C130.444 21.4929 130.932 22.9462 131.778 24.19C132.625 25.4339 133.799 26.42 135.17 27.0399C136.892 27.8139 138.766 28.1897 140.653 28.1395C142.54 28.0893 144.392 27.6143 146.07 26.7499C146.985 26.3373 147.752 25.6541 148.267 24.7922C148.782 23.9304 149.02 22.9314 148.95 21.9299C149.003 20.9638 148.739 20.0067 148.197 19.2049C147.656 18.4032 146.866 17.8008 145.95 17.4899C143.7 16.6499 141.32 16.1899 139.03 15.4899C136.637 14.8138 134.297 13.9615 132.03 12.9399C128.35 11.1499 128.12 4.13995 132.29 1.93994C134.421 0.740214 136.817 0.0916915 139.262 0.0532719C141.707 0.0148523 144.123 0.587752 146.29 1.71994C147.608 2.4458 148.672 3.55694 149.34 4.90452C150.009 6.2521 150.249 7.77177 150.03 9.25994H148.29C148.29 9.16994 148.13 9.09995 148.13 9.00994C147.91 3.42994 143.22 1.68994 138.19 2.17994C136.73 2.35732 135.313 2.78705 134 3.44994C133.212 3.85026 132.556 4.46909 132.111 5.23241C131.665 5.99573 131.449 6.87122 131.488 7.75416C131.527 8.6371 131.82 9.49011 132.331 10.2111C132.842 10.9322 133.55 11.4907 134.37 11.8199C136.57 12.6199 138.9 13.1399 141.17 13.8199L146.66 15.2599C147.908 15.6692 149.003 16.4475 149.799 17.492C150.595 18.5365 151.056 19.7981 151.12 21.1099C151.335 22.5473 151.091 24.0159 150.423 25.3067C149.755 26.5976 148.697 27.645 147.4 28.2999C142.6 31.0199 134.68 30.2999 131.16 26.8699C130.268 25.9711 129.563 24.9051 129.084 23.733C128.605 22.561 128.363 21.306 128.37 20.0399V19.9899ZM177 9.21994H175.09C175.067 8.98005 175.023 8.74255 174.96 8.50994C174.926 7.07855 174.402 5.70217 173.475 4.61032C172.549 3.51847 171.277 2.77714 169.87 2.50994C167.21 1.75134 164.374 1.88838 161.8 2.89994C160.784 3.19119 159.889 3.80335 159.249 4.64502C158.609 5.4867 158.259 6.51273 158.25 7.56994C158.212 8.60996 158.534 9.63119 159.163 10.4605C159.792 11.2897 160.688 11.876 161.7 12.1199L170.44 14.3599C171.386 14.5871 172.318 14.871 173.23 15.2099C174.596 15.6947 175.783 16.5816 176.636 17.754C177.488 18.9263 177.966 20.3292 178.006 21.7781C178.046 23.227 177.646 24.6541 176.86 25.8717C176.074 27.0893 174.937 28.0404 173.6 28.5999C171.571 29.5215 169.372 30.0091 167.144 30.0315C164.915 30.0539 162.707 29.6106 160.66 28.7299C158.979 28.0014 157.56 26.7771 156.593 25.2207C155.627 23.6643 155.158 21.8499 155.25 20.0199H157.12C157.463 21.6946 158.21 23.2598 159.297 24.5794C160.384 25.8989 161.777 26.9326 163.354 27.5903C164.932 28.248 166.647 28.5098 168.349 28.3529C170.051 28.196 171.689 27.6251 173.12 26.6899C173.99 26.2362 174.713 25.5436 175.204 24.6934C175.695 23.8432 175.933 22.8706 175.89 21.8899C175.934 20.9281 175.666 19.9778 175.125 19.1811C174.584 18.3844 173.8 17.7841 172.89 17.4699C170.65 16.6399 168.26 16.1899 165.97 15.4699C163.577 14.8086 161.238 13.9696 158.97 12.9599C155.37 11.1899 155.09 4.23994 159.19 2.02994C161.339 0.784257 163.774 0.114134 166.258 0.0843541C168.742 0.0545737 171.191 0.666145 173.37 1.85994C174.623 2.60066 175.633 3.69001 176.278 4.99512C176.923 6.30023 177.173 7.76471 177 9.20994V9.21994ZM51.73 29.2199C50.978 29.5048 50.1477 29.5045 49.396 29.2189C48.6442 28.9333 48.0231 28.3823 47.65 27.6699L40.21 17.3699L39.13 15.9399L30.5 27.6699C30.1494 28.3527 29.5623 28.8844 28.8483 29.166C28.1343 29.4475 27.3422 29.4596 26.62 29.1999L37.74 14.2799L27.39 0.859943C28.1335 0.588721 28.9478 0.58293 29.6951 0.843555C30.4423 1.10418 31.0765 1.61519 31.49 2.28994L39.2 12.6499L47 2.27994C47.3574 1.62389 47.9396 1.11896 48.6397 0.858051C49.3397 0.597145 50.1104 0.597818 50.81 0.859943L46.81 6.17994L41.38 13.2599C41.0996 13.5097 40.9296 13.8604 40.9071 14.2352C40.8846 14.61 41.0115 14.9784 41.26 15.2599L41.38 15.3799L51.73 29.1999V29.2199ZM98.93 0.659946V2.65995C96.1706 2.47894 93.4522 3.40118 91.3726 5.2239C89.293 7.04662 88.0223 9.62061 87.84 12.3799C87.84 12.7299 87.84 13.0799 87.84 13.3799V29.1999H85.77V0.789943H87.77V6.62994C90.26 2.36994 94.1 0.78994 98.91 0.62994L98.93 0.659946ZM0 14.0999L0.91 9.61995C3.4 0.779945 13.54 -2.90005 20.51 2.61995C24.6 5.81995 25.62 10.3699 25.42 15.4899H2.4C2.03 24.6299 8.63 30.1599 17.07 27.3399C18.4376 26.8457 19.6617 26.0211 20.6335 24.9394C21.6053 23.8577 22.2946 22.5525 22.64 21.1399C23.08 19.6999 23.82 19.4599 25.17 19.8699C24.9451 21.621 24.3261 23.2983 23.3596 24.7758C22.3931 26.2532 21.1043 27.4923 19.59 28.3999C17.0897 29.7716 14.2194 30.3169 11.3902 29.9576C8.56106 29.5983 5.91816 28.353 3.84 26.3999C1.77876 24.0707 0.535605 21.1313 0.3 18.0299C0.26311 17.5422 0.162245 17.0614 0 16.5999C0 15.7399 0 14.9099 0 14.0999ZM2.43 13.4799H23.24C23.11 6.84995 18.93 2.14994 13.35 2.09994C7.14 2.01994 2.69 6.61994 2.42 13.4499L2.43 13.4799Z" fill="#4D4D4D"/>
</g>
<defs>
<clipPath id="clip0_80_382">
<rect width="178" height="39.72" fill="white"/>
</clipPath>
</defs>
</svg>
