<svg width="178" height="41" viewBox="0 0 178 41" fill="none" xmlns="http://www.w3.org/2000/svg">
<g clip-path="url(#clip0_83_463)">
<path d="M5.71 27.3601C5.76239 26.7622 5.65367 26.1612 5.39516 25.6195C5.13665 25.0779 4.73777 24.6154 4.24 24.2801C2.9374 23.5922 1.47016 23.2773 0 23.3701L0 18.0301C0.821008 18.0369 1.64097 17.97 2.45 17.8301C3.09656 17.7121 3.7165 17.4783 4.28 17.1401C4.75482 16.8327 5.13549 16.4001 5.38 15.8901C5.64189 15.3175 5.75538 14.6881 5.71 14.0601V6.96007C5.68443 6.00525 5.83006 5.05356 6.14 4.15007C6.42094 3.36278 6.9511 2.68866 7.65 2.23008C8.56698 1.66578 9.58656 1.28853 10.65 1.12007C12.2394 0.857728 13.8494 0.74058 15.46 0.770076V5.77008C14.917 5.78002 14.3756 5.83016 13.84 5.92008C13.3992 5.99776 12.98 6.16818 12.61 6.42008C12.2753 6.65359 12.0122 6.97559 11.85 7.35008C11.6523 7.8456 11.5604 8.37695 11.58 8.91008V15.5801C11.4933 18.3734 9.75333 20.0401 6.36 20.5801V20.8401C7.79832 20.9846 9.16366 21.544 10.29 22.4501C10.7432 22.869 11.095 23.3858 11.3185 23.9611C11.542 24.5364 11.6315 25.155 11.58 25.7701V32.4401C11.5616 32.9764 11.6535 33.5107 11.85 34.0101C12.0089 34.3866 12.2727 34.7094 12.61 34.9401C12.9798 35.1904 13.3994 35.3575 13.84 35.4301C14.3754 35.5229 14.9168 35.5764 15.46 35.5901V40.5901C13.8491 40.6165 12.2391 40.496 10.65 40.2301C9.58547 40.0658 8.56508 39.6883 7.65 39.1201C6.94857 38.6643 6.41765 37.9892 6.14 37.2001C5.83226 36.2892 5.68672 35.3313 5.71 34.3701V27.3701M172.29 34.3701C172.313 35.3313 172.168 36.2892 171.86 37.2001C171.578 37.9925 171.039 38.6681 170.33 39.1201C169.418 39.6944 168.396 40.0724 167.33 40.2301C165.738 40.4959 164.124 40.6164 162.51 40.5901V35.5901C163.047 35.5775 163.582 35.524 164.11 35.4301C164.546 35.364 164.961 35.1961 165.32 34.9401C165.666 34.7136 165.937 34.3901 166.1 34.0101C166.309 33.5138 166.408 32.9782 166.39 32.4401V25.7701C166.339 25.1551 166.429 24.5366 166.653 23.9615C166.876 23.3863 167.227 22.8695 167.68 22.4501C168.798 21.5435 170.158 20.9839 171.59 20.8401V20.5801C168.21 20.0601 166.49 18.4101 166.39 15.5801V8.93007C166.408 8.39517 166.309 7.8628 166.1 7.37007C165.943 6.98676 165.67 6.66179 165.32 6.44007C164.96 6.18304 164.546 6.01198 164.11 5.94007C163.581 5.85004 163.046 5.7999 162.51 5.79007V0.790073C164.124 0.763716 165.738 0.884213 167.33 1.15007C168.397 1.30453 169.419 1.6828 170.33 2.26007C171.045 2.70859 171.587 3.38504 171.87 4.18007C172.18 5.08356 172.326 6.03525 172.3 6.99008V14.0801C172.265 14.7075 172.378 15.3345 172.63 15.9101C172.871 16.4222 173.253 16.8556 173.73 17.1601C174.28 17.5035 174.891 17.7378 175.53 17.8501C176.348 17.9976 177.179 18.0679 178.01 18.0601V23.3901C176.533 23.3028 175.06 23.6209 173.75 24.3101C173.255 24.6471 172.86 25.1105 172.605 25.6522C172.35 26.1938 172.244 26.794 172.3 27.3901V34.3901" fill="#5B5B5B"/>
<path d="M25 35.7699C24.5652 35.7821 24.1301 35.7554 23.7 35.6899C23.3586 35.643 23.0233 35.5592 22.7 35.4399V33.0599C23.0585 33.1507 23.4226 33.2175 23.79 33.2599C24.2062 33.3296 24.6281 33.3598 25.05 33.3499C25.421 33.3484 25.7904 33.3013 26.15 33.2099C26.5172 33.1166 26.8589 32.9424 27.15 32.6999C27.4779 32.4328 27.7354 32.0895 27.9 31.6999C28.1052 31.1679 28.2005 30.5998 28.18 30.0299V8.1599H31V29.6899C31.0186 30.6124 30.8695 31.5307 30.56 32.3999C30.3006 33.1189 29.8799 33.7689 29.33 34.2999C28.8002 34.816 28.1561 35.1997 27.45 35.4199C26.6079 35.6778 25.7307 35.8027 24.85 35.7899M44.85 27.7199H44.73C44.4301 28.1373 44.0956 28.5286 43.73 28.8899C43.4087 29.198 43.0491 29.4635 42.66 29.6799C42.2513 29.8955 41.8134 30.0505 41.36 30.1399C40.8132 30.2458 40.257 30.2961 39.7 30.2899C39.0577 30.296 38.4189 30.1946 37.81 29.9899C37.2494 29.8082 36.7344 29.5081 36.3 29.1099C35.8662 28.6808 35.5258 28.1667 35.3 27.5999C35.0461 26.9018 34.924 26.1626 34.94 25.4199C34.9106 24.7023 35.0553 23.9882 35.3618 23.3387C35.6683 22.6892 36.1274 22.1235 36.7 21.6899C38.2746 20.668 40.1238 20.1516 42 20.2099L44.74 20.0999V19.0999C44.7516 18.5353 44.6774 17.9722 44.52 17.4299C44.4025 17.0234 44.186 16.6523 43.89 16.3499C43.6113 16.0727 43.2674 15.8698 42.89 15.7599C42.4447 15.6326 41.9831 15.5719 41.52 15.5799C40.7353 15.5696 39.9544 15.6913 39.21 15.9399C38.5214 16.1725 37.8525 16.4601 37.21 16.7999L36.21 14.7999C36.9958 14.388 37.8197 14.0531 38.67 13.7999C39.5938 13.5198 40.5547 13.3816 41.52 13.3899C42.4067 13.3723 43.2917 13.4766 44.15 13.6999C44.8339 13.8753 45.463 14.2191 45.98 14.6999C46.4355 15.1345 46.7846 15.6683 47 16.2599C47.2573 17.0642 47.379 17.9057 47.36 18.7499V29.9699H45.36L44.85 27.7199ZM40.42 28.0899C40.996 28.0937 41.5682 27.9956 42.11 27.7999C42.616 27.6232 43.0745 27.3324 43.45 26.9499C43.8442 26.5393 44.1444 26.048 44.33 25.5099C44.5615 24.8483 44.6733 24.1507 44.66 23.4499V21.9699L42.53 22.0799C41.7715 22.1004 41.0173 22.2009 40.28 22.3799C39.7482 22.4971 39.2473 22.7254 38.81 23.0499C38.4687 23.3086 38.2029 23.6538 38.04 24.0499C37.8735 24.4802 37.792 24.9386 37.8 25.3999C37.7698 25.7654 37.8184 26.1331 37.9426 26.4782C38.0668 26.8232 38.2637 27.1376 38.52 27.3999C39.0507 27.8439 39.7288 28.0723 40.42 28.0399M49.64 13.5699H52.44L55.44 22.6799L55.82 23.9499L56.27 25.5299L56.67 27.0499L56.93 28.1299H57L57.25 27.0499L57.66 25.5299L58.1 23.9499L58.49 22.6799L61.49 13.5599H64.29L58.7 29.9399H55.22L49.64 13.5699ZM75.35 27.6899H75.23C74.927 28.1048 74.5927 28.496 74.23 28.8599C73.9087 29.168 73.5491 29.4335 73.16 29.6499C72.7506 29.864 72.3129 30.0189 71.86 30.1099C71.3132 30.2158 70.757 30.2661 70.2 30.2599C69.5577 30.266 68.9189 30.1646 68.31 29.9599C67.748 29.7815 67.2323 29.481 66.8 29.0799C66.363 28.6535 66.0221 28.1387 65.8 27.5699C65.5461 26.8718 65.424 26.1326 65.44 25.3899C65.416 24.6784 65.5622 23.9714 65.8666 23.3278C66.171 22.6843 66.6248 22.1227 67.19 21.6899C68.7573 20.6982 70.5863 20.2 72.44 20.2599L75.19 20.1499V19.1499C75.2256 18.56 75.1614 17.9684 75 17.3999C74.8862 16.994 74.6731 16.6229 74.38 16.3199C74.1013 16.0427 73.7574 15.8398 73.38 15.7299C72.9314 15.6023 72.4664 15.5417 72 15.5499C71.2153 15.5396 70.4344 15.6613 69.69 15.9099C69.0007 16.1407 68.3317 16.4284 67.69 16.7699L66.69 14.7699C67.4758 14.358 68.2997 14.0231 69.15 13.7699C70.0707 13.4695 71.0317 13.311 72 13.2999C72.8867 13.2829 73.7716 13.3872 74.63 13.6099C75.3139 13.7853 75.943 14.1291 76.46 14.6099C76.9569 15.0709 77.3315 15.6482 77.55 16.2899C77.8073 17.0942 77.929 17.9357 77.91 18.7799V29.9999H75.91L75.35 27.6899ZM70.92 28.0599C71.4955 28.0672 72.0676 27.9724 72.61 27.7799C73.113 27.5971 73.5703 27.3071 73.95 26.9299C74.3436 26.515 74.6437 26.0206 74.83 25.4799C75.0566 24.8378 75.1683 24.1608 75.16 23.4799V21.9999L73.03 22.0999C72.2683 22.1214 71.5109 22.2219 70.77 22.3999C70.2449 22.5275 69.7492 22.7549 69.31 23.0699C68.968 23.3279 68.702 23.6733 68.54 24.0699C68.3735 24.5036 68.292 24.9654 68.3 25.4299C68.2704 25.7945 68.3184 26.1612 68.4408 26.506C68.5631 26.8507 68.7571 27.1656 69.01 27.4299C69.5433 27.8762 70.2254 28.1048 70.92 28.0699M94.58 24.1399C94.5954 25.0306 94.418 25.9141 94.06 26.7299C93.7346 27.4892 93.2344 28.1608 92.6 28.6899C91.9129 29.244 91.1201 29.6522 90.27 29.8899C89.2684 30.1739 88.2311 30.312 87.19 30.2999C86.1506 30.306 85.1128 30.2156 84.09 30.0299C83.2527 29.9004 82.4401 29.6442 81.68 29.2699V26.6099L82.83 27.0899L84.2 27.4899L85.68 27.7899C86.1835 27.8617 86.6914 27.8984 87.2 27.8999C88.4375 27.9979 89.6724 27.6813 90.71 26.9999C91.0959 26.6993 91.4024 26.3089 91.6028 25.8627C91.8033 25.4165 91.8916 24.928 91.86 24.4399C91.8718 23.9605 91.7973 23.4829 91.64 23.0299C91.485 22.6071 91.2231 22.2316 90.88 21.9399C90.447 21.5389 89.9587 21.2022 89.43 20.9399C88.6845 20.5672 87.9201 20.2334 87.14 19.9399C86.3352 19.6317 85.5589 19.2536 84.82 18.8099C84.2156 18.4233 83.6729 17.948 83.21 17.3999C82.7926 16.8751 82.474 16.2787 82.27 15.6399C82.0728 14.9033 81.9818 14.1423 82 13.3799C81.9864 12.5752 82.1467 11.777 82.47 11.0399C82.7772 10.3648 83.2398 9.77197 83.82 9.3099C84.4098 8.82053 85.0891 8.45035 85.82 8.2199C86.6829 7.96288 87.5797 7.83813 88.48 7.8499C89.553 7.83671 90.6239 7.95083 91.67 8.1899C92.5376 8.38361 93.3823 8.66853 94.19 9.0399L93.19 11.3699C92.4833 11.0565 91.7505 10.8056 91 10.6199C90.1746 10.4002 89.3241 10.2893 88.47 10.2899C87.4591 10.2307 86.4599 10.5319 85.65 11.1399C85.3196 11.4155 85.0573 11.7639 84.8839 12.1577C84.7104 12.5515 84.6304 12.98 84.65 13.4099C84.6432 13.9086 84.7175 14.4051 84.87 14.8799C85.0289 15.3068 85.2858 15.6904 85.62 15.9999C86.0295 16.3769 86.4909 16.6935 86.99 16.9399C87.68 17.2799 88.39 17.5899 89.11 17.8699C89.9226 18.1858 90.7142 18.5532 91.48 18.9699C92.1151 19.3066 92.6951 19.7383 93.2 20.2499C93.6458 20.7234 93.9865 21.2857 94.2 21.8999C94.4572 22.6216 94.5826 23.3838 94.57 24.1499M104.66 30.2499C103.701 30.2583 102.747 30.1028 101.84 29.7899C100.974 29.4775 100.194 28.9673 99.56 28.2999C98.8898 27.5428 98.3857 26.6537 98.08 25.6899C97.6824 24.4531 97.4931 23.1588 97.52 21.8599C97.485 20.5048 97.6742 19.1533 98.08 17.8599C98.398 16.8715 98.9268 15.9639 99.63 15.1999C100.296 14.5378 101.107 14.0411 102 13.7499C102.917 13.4363 103.881 13.2808 104.85 13.2899C105.61 13.2879 106.368 13.3718 107.11 13.5399C107.756 13.675 108.384 13.8865 108.98 14.1699L108.18 16.4699C107.933 16.3586 107.679 16.2618 107.42 16.1799C107.138 16.0815 106.851 15.998 106.56 15.9299C106.271 15.8508 105.977 15.7906 105.68 15.7499C105.409 15.6999 105.135 15.6732 104.86 15.6699C104.208 15.6162 103.553 15.7273 102.956 15.9929C102.358 16.2585 101.837 16.6701 101.44 17.1899C100.622 18.5964 100.249 20.2174 100.37 21.8399C100.248 23.4498 100.621 25.0584 101.44 26.4499C101.832 26.9405 102.337 27.3288 102.911 27.5814C103.486 27.8339 104.114 27.9432 104.74 27.8999C105.472 27.9083 106.202 27.8175 106.91 27.6299C107.525 27.4622 108.124 27.2413 108.7 26.9699V29.3899C108.155 29.6828 107.573 29.9014 106.97 30.0399C106.225 30.2052 105.463 30.2824 104.7 30.2699M119.52 13.2699H120.52C120.828 13.2834 121.136 13.3168 121.44 13.3699L121 15.9499L120.14 15.8299C119.868 15.7912 119.594 15.7711 119.32 15.7699C118.724 15.7625 118.135 15.8961 117.6 16.1599C117.077 16.4176 116.619 16.7902 116.26 17.2499C115.866 17.7572 115.571 18.3339 115.39 18.9499C115.19 19.6624 115.092 20.3998 115.1 21.1399V29.9699H112.38V13.5999H114.59L114.92 16.5999H115.04L115.83 15.3699C116.117 14.9928 116.453 14.6564 116.83 14.3699C117.188 14.063 117.593 13.8165 118.03 13.6399C118.515 13.4414 119.036 13.3427 119.56 13.3499" fill="black"/>
<path d="M25 35.7699C24.5652 35.7821 24.1301 35.7554 23.7 35.6899C23.3586 35.643 23.0233 35.5592 22.7 35.4399V33.0599C23.0585 33.1507 23.4226 33.2175 23.79 33.2599C24.2062 33.3296 24.6281 33.3598 25.05 33.3499C25.421 33.3484 25.7904 33.3013 26.15 33.2099C26.5172 33.1166 26.8589 32.9424 27.15 32.6999C27.4779 32.4328 27.7354 32.0895 27.9 31.6999C28.1052 31.1679 28.2005 30.5998 28.18 30.0299V8.1599H31V29.6899C31.0186 30.6124 30.8695 31.5307 30.56 32.3999C30.3006 33.1189 29.8799 33.7689 29.33 34.2999C28.8002 34.816 28.1561 35.1997 27.45 35.4199C26.6079 35.6778 25.7307 35.8027 24.85 35.7899M40.42 28.0899C40.996 28.0937 41.5682 27.9956 42.11 27.7999C42.616 27.6232 43.0745 27.3324 43.45 26.9499C43.8442 26.5393 44.1444 26.048 44.33 25.5099C44.5615 24.8483 44.6733 24.1507 44.66 23.4499V21.9699L42.53 22.0799C41.7715 22.1004 41.0173 22.2009 40.28 22.3799C39.7482 22.4971 39.2473 22.7254 38.81 23.0499C38.4687 23.3086 38.2029 23.6538 38.04 24.0499C37.8735 24.4802 37.792 24.9386 37.8 25.3999C37.7698 25.7654 37.8184 26.1331 37.9426 26.4782C38.0668 26.8232 38.2637 27.1376 38.52 27.3999C39.0507 27.8439 39.7288 28.0723 40.42 28.0399M70.92 28.0599C71.4955 28.0672 72.0676 27.9724 72.61 27.7799C73.113 27.5971 73.5703 27.3071 73.95 26.9299C74.3436 26.515 74.6437 26.0206 74.83 25.4799C75.0566 24.8378 75.1683 24.1608 75.16 23.4799V21.9999L73.03 22.0999C72.2683 22.1214 71.5109 22.2219 70.77 22.3999C70.2448 22.5275 69.7492 22.7549 69.31 23.0699C68.968 23.3279 68.702 23.6733 68.54 24.0699C68.3735 24.5036 68.292 24.9654 68.3 25.4299C68.2704 25.7945 68.3184 26.1612 68.4408 26.506C68.5631 26.8507 68.7571 27.1656 69.01 27.4299C69.5433 27.8762 70.2254 28.1048 70.92 28.0699M94.58 24.1399C94.5954 25.0306 94.418 25.9141 94.06 26.7299C93.7346 27.4892 93.2344 28.1608 92.6 28.6899C91.9129 29.244 91.1201 29.6522 90.27 29.8899C89.2684 30.1739 88.2311 30.312 87.19 30.2999C86.1506 30.306 85.1128 30.2156 84.09 30.0299C83.2527 29.9004 82.4401 29.6442 81.68 29.2699V26.6099L82.83 27.0899L84.2 27.4899L85.68 27.7899C86.1835 27.8617 86.6914 27.8984 87.2 27.8999C88.4375 27.9979 89.6724 27.6813 90.71 26.9999C91.0959 26.6993 91.4024 26.3089 91.6028 25.8627C91.8033 25.4165 91.8916 24.928 91.86 24.4399C91.8718 23.9605 91.7973 23.4829 91.64 23.0299C91.485 22.6071 91.2231 22.2316 90.88 21.9399C90.447 21.5389 89.9587 21.2022 89.43 20.9399C88.6845 20.5672 87.9201 20.2334 87.14 19.9399C86.3352 19.6317 85.5589 19.2536 84.82 18.8099C84.2156 18.4233 83.6729 17.948 83.21 17.3999C82.7926 16.8751 82.474 16.2787 82.27 15.6399C82.0728 14.9033 81.9818 14.1423 82 13.3799C81.9864 12.5752 82.1467 11.777 82.47 11.0399C82.7772 10.3648 83.2398 9.77197 83.82 9.3099C84.4098 8.82053 85.0891 8.45035 85.82 8.2199C86.6829 7.96288 87.5797 7.83813 88.48 7.8499C89.553 7.83671 90.6239 7.95083 91.67 8.1899C92.5376 8.38361 93.3823 8.66853 94.19 9.0399L93.19 11.3699C92.4833 11.0565 91.7505 10.8056 91 10.6199C90.1746 10.4002 89.3241 10.2893 88.47 10.2899C87.4591 10.2307 86.4599 10.5319 85.65 11.1399C85.3196 11.4155 85.0573 11.7639 84.8839 12.1577C84.7104 12.5515 84.6304 12.98 84.65 13.4099C84.6432 13.9086 84.7175 14.4051 84.87 14.8799C85.0289 15.3068 85.2858 15.6904 85.62 15.9999C86.0295 16.3769 86.4909 16.6935 86.99 16.9399C87.68 17.2799 88.39 17.5899 89.11 17.8699C89.9226 18.1858 90.7142 18.5532 91.48 18.9699C92.1151 19.3066 92.6951 19.7383 93.2 20.2499C93.6458 20.7234 93.9865 21.2856 94.2 21.8999C94.4572 22.6216 94.5826 23.3838 94.57 24.1499M104.66 30.2499C103.701 30.2583 102.747 30.1028 101.84 29.7899C100.974 29.4775 100.194 28.9673 99.56 28.2999C98.8898 27.5428 98.3857 26.6537 98.08 25.6899C97.6824 24.4531 97.4931 23.1588 97.52 21.8599C97.485 20.5048 97.6742 19.1533 98.08 17.8599C98.398 16.8715 98.9268 15.9639 99.63 15.1999C100.296 14.5378 101.107 14.0411 102 13.7499C102.917 13.4363 103.881 13.2808 104.85 13.2899C105.61 13.2879 106.368 13.3718 107.11 13.5399C107.756 13.675 108.384 13.8865 108.98 14.1699L108.18 16.4699C107.933 16.3586 107.679 16.2618 107.42 16.1799C107.138 16.0815 106.851 15.998 106.56 15.9299C106.271 15.8508 105.977 15.7906 105.68 15.7499C105.409 15.6999 105.135 15.6732 104.86 15.6699C104.208 15.6162 103.553 15.7273 102.956 15.9929C102.358 16.2585 101.837 16.6701 101.44 17.1899C100.622 18.5964 100.249 20.2174 100.37 21.8399C100.248 23.4498 100.621 25.0584 101.44 26.4499C101.832 26.9405 102.337 27.3288 102.911 27.5814C103.486 27.8339 104.114 27.9432 104.74 27.8999C105.472 27.9083 106.202 27.8175 106.91 27.6299C107.525 27.4622 108.124 27.2413 108.7 26.9699V29.3899C108.155 29.6828 107.573 29.9014 106.97 30.0399C106.225 30.2052 105.463 30.2824 104.7 30.2699M119.52 13.2699H120.52C120.829 13.2834 121.136 13.3168 121.44 13.3699L121 15.9499L120.14 15.8299C119.868 15.7912 119.594 15.7711 119.32 15.7699C118.724 15.7625 118.135 15.8961 117.6 16.1599C117.077 16.4176 116.619 16.7902 116.26 17.2499C115.866 17.7572 115.571 18.3339 115.39 18.9499C115.19 19.6624 115.092 20.3998 115.1 21.1399V29.9699H112.38V13.5999H114.59L114.92 16.5999H115.04L115.83 15.3699C116.117 14.9928 116.453 14.6564 116.83 14.3699C117.188 14.063 117.593 13.8165 118.03 13.6399C118.515 13.4414 119.036 13.3427 119.56 13.3499M44.85 27.7199H44.73C44.4301 28.1373 44.0956 28.5286 43.73 28.8899C43.4087 29.198 43.0491 29.4635 42.66 29.6799C42.2513 29.8955 41.8134 30.0505 41.36 30.1399C40.8132 30.2458 40.257 30.2961 39.7 30.2899C39.0577 30.296 38.4189 30.1946 37.81 29.9899C37.2494 29.8082 36.7344 29.5081 36.3 29.1099C35.8662 28.6808 35.5258 28.1667 35.3 27.5999C35.0461 26.9018 34.924 26.1626 34.94 25.4199C34.9106 24.7023 35.0553 23.9882 35.3618 23.3387C35.6683 22.6892 36.1274 22.1235 36.7 21.6899C38.2746 20.668 40.1238 20.1516 42 20.2099L44.74 20.0999V19.0999C44.7516 18.5353 44.6774 17.9722 44.52 17.4299C44.4025 17.0234 44.186 16.6523 43.89 16.3499C43.6113 16.0727 43.2674 15.8698 42.89 15.7599C42.4447 15.6326 41.9831 15.5719 41.52 15.5799C40.7353 15.5696 39.9544 15.6913 39.21 15.9399C38.5214 16.1725 37.8525 16.4601 37.21 16.7999L36.21 14.7999C36.9958 14.388 37.8197 14.0531 38.67 13.7999C39.5938 13.5198 40.5547 13.3816 41.52 13.3899C42.4067 13.3723 43.2917 13.4766 44.15 13.6999C44.8339 13.8753 45.463 14.2191 45.98 14.6999C46.4355 15.1345 46.7846 15.6683 47 16.2599C47.2573 17.0642 47.379 17.9057 47.36 18.7499V29.9699H45.36L44.85 27.7199ZM49.64 13.5699H52.44L55.44 22.6799L55.82 23.9499L56.27 25.5299L56.67 27.0499L56.93 28.1299H57L57.25 27.0499L57.66 25.5299L58.1 23.9499L58.49 22.6799L61.49 13.5599H64.29L58.7 29.9399H55.22L49.64 13.5699ZM75.35 27.6899H75.23C74.927 28.1048 74.5927 28.496 74.23 28.8599C73.9087 29.168 73.5491 29.4335 73.16 29.6499C72.7506 29.864 72.3129 30.0189 71.86 30.1099C71.3132 30.2158 70.757 30.2661 70.2 30.2599C69.5577 30.266 68.9189 30.1646 68.31 29.9599C67.748 29.7815 67.2323 29.481 66.8 29.0799C66.363 28.6535 66.0221 28.1387 65.8 27.5699C65.5461 26.8718 65.424 26.1326 65.44 25.3899C65.416 24.6784 65.5622 23.9714 65.8666 23.3278C66.171 22.6843 66.6248 22.1227 67.19 21.6899C68.7573 20.6982 70.5863 20.2 72.44 20.2599L75.19 20.1499V19.1499C75.2256 18.56 75.1614 17.9684 75 17.3999C74.8862 16.994 74.6731 16.6229 74.38 16.3199C74.1013 16.0427 73.7574 15.8398 73.38 15.7299C72.9314 15.6023 72.4664 15.5417 72 15.5499C71.2153 15.5396 70.4344 15.6613 69.69 15.9099C69.0007 16.1407 68.3317 16.4284 67.69 16.7699L66.69 14.7699C67.4758 14.358 68.2997 14.0231 69.15 13.7699C70.0707 13.4695 71.0317 13.311 72 13.2999C72.8867 13.2829 73.7716 13.3872 74.63 13.6099C75.3139 13.7853 75.943 14.1291 76.46 14.6099C76.9569 15.0709 77.3315 15.6482 77.55 16.2899C77.8073 17.0942 77.929 17.9357 77.91 18.7799V29.9999H75.91L75.35 27.6899Z" stroke="black" stroke-width="1.7"/>
<path d="M127.11 29.9699H124.39V13.5899H127.11V29.9699ZM124.63 7.85994C124.944 7.59051 125.347 7.44787 125.76 7.45994C125.968 7.45571 126.174 7.48961 126.37 7.55994C126.563 7.61541 126.738 7.71859 126.88 7.85994C127.035 8.01018 127.151 8.19535 127.22 8.39994C127.318 8.64109 127.366 8.89971 127.36 9.15994C127.385 9.38113 127.361 9.60507 127.291 9.81634C127.221 10.0276 127.106 10.2212 126.954 10.3837C126.802 10.5462 126.617 10.6739 126.41 10.7578C126.204 10.8417 125.982 10.88 125.76 10.8699C125.334 10.8568 124.927 10.6858 124.62 10.3899C124.463 10.2199 124.343 10.0194 124.267 9.80086C124.192 9.58232 124.162 9.35051 124.18 9.11994C124.162 8.89004 124.192 8.65884 124.27 8.44164C124.347 8.22444 124.47 8.02617 124.63 7.85994Z" fill="black" stroke="black" stroke-width="1.7" stroke-linecap="square"/>
<path d="M139.55 30.2701C138.544 30.2746 137.552 30.0344 136.66 29.5701C136.297 29.3578 135.962 29.1026 135.66 28.8101C135.376 28.5284 135.115 28.2241 134.88 27.9001H134.7L134.79 28.9001L134.85 29.6901V30.3301V37.3301H132.13V13.5901H134.34L134.73 15.8001H134.85C135.08 15.4445 135.341 15.1098 135.63 14.8001C135.924 14.4903 136.261 14.2243 136.63 14.0101C137.036 13.7732 137.474 13.5947 137.93 13.4801C138.454 13.3344 138.996 13.2637 139.54 13.2701C140.419 13.2579 141.289 13.4388 142.09 13.8001C142.883 14.157 143.572 14.7113 144.09 15.4101C144.676 16.2037 145.11 17.0987 145.37 18.0501C145.693 19.2459 145.845 20.4816 145.82 21.7201C145.84 22.9682 145.688 24.2131 145.37 25.4201C145.12 26.3783 144.685 27.2785 144.09 28.0701C143.569 28.7713 142.882 29.3316 142.09 29.7001C141.224 30.0686 140.291 30.2525 139.35 30.2401M139 15.5501C138.343 15.5294 137.69 15.6452 137.08 15.8901C136.573 16.1009 136.134 16.4468 135.81 16.8901C135.461 17.4261 135.217 18.0233 135.09 18.6501C134.929 19.4603 134.845 20.284 134.84 21.1101V21.7201C134.831 22.6171 134.894 23.5134 135.03 24.4001C135.135 25.1035 135.369 25.7815 135.72 26.4001C136.032 26.917 136.482 27.3361 137.02 27.6101C137.646 27.8979 138.331 28.0349 139.02 28.0101C139.614 28.0442 140.206 27.9104 140.728 27.6239C141.249 27.3374 141.68 26.9098 141.97 26.3901C142.704 24.947 143.049 23.3373 142.97 21.7201C143.062 20.1115 142.716 18.5081 141.97 17.0801C141.658 16.5746 141.213 16.1645 140.684 15.8947C140.155 15.6249 139.562 15.5057 138.97 15.5501M154.77 28.0401C154.95 28.0401 155.15 28.0401 155.37 28.0401L156.02 27.9701L156.58 27.8601L156.98 27.7601V29.8201C156.822 29.8931 156.658 29.9533 156.49 30.0001C156.276 30.0628 156.059 30.1129 155.84 30.1501C155.341 30.2337 154.836 30.2838 154.33 30.3001C153.752 30.301 153.176 30.2202 152.62 30.0601C152.101 29.9005 151.628 29.6193 151.24 29.2401C150.832 28.7884 150.528 28.2524 150.35 27.6701C150.109 26.8558 149.998 26.0089 150.02 25.1601V15.6901H147.71V14.4301L150.02 13.2601L151.18 9.84009H152.75V13.5901H156.87V15.5901H152.75V25.0801C152.701 25.8351 152.86 26.5891 153.21 27.2601C153.383 27.5051 153.617 27.7012 153.889 27.8291C154.161 27.957 154.461 28.0125 154.76 27.9901" fill="black"/>
<path d="M139.55 30.2701C138.544 30.2746 137.552 30.0344 136.66 29.5701C136.297 29.3578 135.962 29.1026 135.66 28.8101C135.376 28.5284 135.115 28.2241 134.88 27.9001H134.7L134.79 28.9001L134.85 29.6901V30.3301V37.3301H132.13V13.5901H134.34L134.73 15.8001H134.85C135.08 15.4445 135.341 15.1098 135.63 14.8001C135.924 14.4903 136.261 14.2243 136.63 14.0101C137.036 13.7732 137.474 13.5947 137.93 13.4801C138.454 13.3344 138.996 13.2637 139.54 13.2701C140.419 13.2579 141.289 13.4388 142.09 13.8001C142.883 14.157 143.572 14.7113 144.09 15.4101C144.676 16.2037 145.11 17.0987 145.37 18.0501C145.693 19.2459 145.845 20.4816 145.82 21.7201C145.84 22.9682 145.688 24.2131 145.37 25.4201C145.12 26.3783 144.685 27.2785 144.09 28.0701C143.569 28.7713 142.882 29.3316 142.09 29.7001C141.224 30.0686 140.291 30.2525 139.35 30.2401M139 15.5501C138.343 15.5294 137.69 15.6452 137.08 15.8901C136.573 16.1009 136.134 16.4468 135.81 16.8901C135.461 17.4261 135.217 18.0233 135.09 18.6501C134.929 19.4603 134.845 20.284 134.84 21.1101V21.7201C134.831 22.6171 134.894 23.5134 135.03 24.4001C135.135 25.1035 135.369 25.7815 135.72 26.4001C136.032 26.917 136.482 27.3361 137.02 27.6101C137.646 27.8979 138.331 28.0349 139.02 28.0101C139.614 28.0442 140.206 27.9104 140.728 27.6239C141.249 27.3374 141.68 26.9098 141.97 26.3901C142.704 24.947 143.049 23.3373 142.97 21.7201C143.062 20.1115 142.716 18.5081 141.97 17.0801C141.658 16.5746 141.213 16.1645 140.684 15.8947C140.155 15.6249 139.562 15.5057 138.97 15.5501M154.77 28.0401C154.95 28.0401 155.15 28.0401 155.37 28.0401L156.02 27.9701L156.58 27.8601L156.98 27.7601V29.8201C156.822 29.8931 156.658 29.9533 156.49 30.0001C156.276 30.0628 156.059 30.1129 155.84 30.1501C155.341 30.2337 154.836 30.2838 154.33 30.3001C153.752 30.301 153.176 30.2202 152.62 30.0601C152.101 29.9005 151.628 29.6193 151.24 29.2401C150.832 28.7884 150.528 28.2524 150.35 27.6701C150.109 26.8558 149.998 26.0089 150.02 25.1601V15.6901H147.71V14.4301L150.02 13.2601L151.18 9.84009H152.75V13.5901H156.87V15.5901H152.75V25.0801C152.701 25.8351 152.86 26.5891 153.21 27.2601C153.383 27.5051 153.617 27.7012 153.889 27.8291C154.161 27.957 154.461 28.0125 154.76 27.9901" stroke="black" stroke-width="1.7"/>
</g>
<defs>
<clipPath id="clip0_83_463">
<rect width="178" height="39.84" fill="white" transform="translate(0 0.77002)"/>
</clipPath>
</defs>
</svg>
