<svg width="178" height="69" viewBox="0 0 178 69" fill="none" xmlns="http://www.w3.org/2000/svg">
<g clip-path="url(#clip0_79_375)">
<path d="M15.23 0.189903L17.07 3.6399C17.4661 4.27094 17.9287 4.85763 18.45 5.3899C19.9942 6.91479 21.4341 8.5418 22.76 10.2599C25.7878 14.3287 28.0606 18.908 29.47 23.7799C30.3645 26.7598 30.8423 29.8491 30.89 32.9599C31.028 37.3801 30.2578 41.7817 28.6273 45.8925C26.9967 50.0033 24.5403 53.736 21.41 56.8599C20.353 57.9044 19.2126 58.8609 18 59.7199C17.36 59.7199 17.06 59.2099 16.8 58.7799C16.3178 57.9479 15.9988 57.0315 15.86 56.0799C15.6127 54.9611 15.5152 53.8144 15.57 52.6699V52.1499C15.57 52.0399 14.97 0.449902 15.19 0.149902L15.23 0.189903Z" fill="#797979"/>
<path d="M15.23 0.0800944C15.16 -0.0699056 15.08 0.0800944 15.01 0.0800944C15.0216 0.817417 14.7974 1.53917 14.37 2.14009C13.8869 2.75315 13.3331 3.30699 12.72 3.79009C9.44889 6.69261 6.73744 10.1701 4.72 14.0501C1.97389 19.2595 0.365083 24.9925 0 30.8701C0.0224843 34.8533 0.471715 38.8226 1.34 42.7101C3.20158 48.3466 6.43924 53.4299 10.76 57.5001C11.8309 58.5229 12.9559 59.4876 14.13 60.3901C14.46 60.3901 14.5 60.0901 14.58 59.8601C14.7263 59.3824 14.8366 58.8943 14.91 58.4001C15.25 56.5301 15.44 54.6601 15.66 52.7901L15.25 0.120095L15.23 0.0800944Z" fill="#8E8E8E"/>
<path d="M17.07 61.9999C17.2032 61.1776 17.525 60.3972 18.01 59.7199C17.566 59.5017 17.1995 59.1527 16.96 58.7199C16.7408 58.322 16.5535 57.9074 16.4 57.4799C15.9493 55.9062 15.6842 54.2852 15.61 52.6499V51.6499C15.4461 52.1703 15.3717 52.7147 15.39 53.2599C15.2747 54.9398 15.0475 56.6102 14.71 58.2599C14.6734 58.9651 14.4676 59.651 14.11 60.2599C14.0927 60.3457 14.0927 60.4341 14.11 60.5199C14.7154 62.4889 15.0518 64.5307 15.11 66.5899V67.3899C15.11 68.2899 15.11 68.0999 15.82 68.3899C16.152 68.4641 16.4696 68.5925 16.76 68.7699C16.98 68.7699 17.02 68.5799 17.02 68.4299L16.91 67.1899V63.7399C16.899 63.1496 16.9493 62.5598 17.06 61.9799L17.07 61.9999Z" fill="#C0C0C0"/>
<path d="M45.52 46.3301V49.9001C45.5053 50.0397 45.5053 50.1805 45.52 50.3201C45.5375 50.5087 45.6133 50.6871 45.737 50.8305C45.8607 50.9739 46.026 51.0751 46.21 51.1201C46.5638 51.2189 46.925 51.2891 47.29 51.3301C47.5 51.3301 47.57 51.4501 47.6 51.6801C47.6 52.4801 47.6 52.5701 46.78 52.5201C44.9714 52.4201 43.1586 52.4201 41.35 52.5201H41.2C40.64 52.5201 40.59 52.5201 40.59 51.9301C40.59 51.8401 40.59 51.7201 40.59 51.6301C40.5883 51.5937 40.5945 51.5575 40.6083 51.5238C40.622 51.4901 40.6429 51.4598 40.6696 51.4351C40.6963 51.4103 40.728 51.3917 40.7626 51.3804C40.7972 51.3692 40.8339 51.3657 40.87 51.3701C41.25 51.3701 41.6 51.2301 41.95 51.1601C42.1698 51.1203 42.37 51.0082 42.5186 50.8414C42.6672 50.6747 42.7557 50.463 42.77 50.2401C42.8285 49.6955 42.8518 49.1477 42.84 48.6001V42.3101C42.8433 42.1295 42.7976 41.9514 42.7078 41.7947C42.618 41.638 42.4875 41.5086 42.33 41.4201C41.9049 41.1829 41.4557 40.9918 40.99 40.8501C40.8502 40.8246 40.7152 40.7774 40.59 40.7101C40.25 40.5501 40.24 40.2401 40.59 40.0601C40.7132 39.9864 40.8487 39.9356 40.99 39.9101C42.41 39.7172 43.807 39.3821 45.16 38.9101C45.44 38.8101 45.51 38.8401 45.54 39.1201C45.5601 39.2995 45.5601 39.4807 45.54 39.6601C45.5156 39.9563 45.5156 40.2539 45.54 40.5501C45.5318 40.6097 45.5406 40.6704 45.5654 40.7252C45.5902 40.7801 45.6299 40.8268 45.68 40.8601C45.8 40.9301 45.92 40.8601 46.02 40.7901C46.5055 40.4207 47.0168 40.0865 47.55 39.7901C48.2992 39.3109 49.1294 38.972 50 38.7901C50.5068 38.7125 51.0245 38.7485 51.5156 38.8955C52.0068 39.0425 52.4592 39.2969 52.84 39.6401C53.1789 39.9333 53.4781 40.2695 53.73 40.6401C53.97 40.9801 53.99 40.9901 54.3 40.7601C55.1753 40.0902 56.129 39.5293 57.14 39.0901C58.1529 38.6355 59.3013 38.5854 60.35 38.9501C60.8713 39.1343 61.3467 39.4289 61.7437 39.8138C62.1406 40.1987 62.4498 40.6647 62.65 41.1801C63.0163 42.008 63.2004 42.9049 63.19 43.8101V50.1001C63.1805 50.292 63.2326 50.4819 63.3388 50.642C63.4449 50.8022 63.5995 50.9242 63.78 50.9901C64.2392 51.1466 64.7109 51.2636 65.19 51.3401C65.49 51.4101 65.49 51.4101 65.49 51.7201C65.49 52.4901 65.38 52.5401 64.63 52.4901C62.7447 52.3901 60.8553 52.3901 58.97 52.4901C58.59 52.4901 58.59 52.4901 58.57 52.1401V52.0201C58.57 51.3901 58.57 51.3901 59.16 51.2501L59.77 51.0901C59.9732 51.0333 60.1532 50.9138 60.2843 50.7485C60.4154 50.5833 60.4909 50.3808 60.5 50.1701L60.57 48.4101V43.8101C60.5481 43.3988 60.4603 42.9936 60.31 42.6101C60.072 42.0001 59.6333 41.4894 59.0661 41.1621C58.499 40.8349 57.8372 40.7108 57.19 40.8101C56.2707 40.9164 55.3951 41.2611 54.65 41.8101C54.5631 41.8563 54.4926 41.9281 54.4478 42.0157C54.4031 42.1034 54.3864 42.2026 54.4 42.3001C54.5199 43.8003 54.55 45.3063 54.49 46.8101V50.0701C54.4761 50.1884 54.4859 50.3083 54.5187 50.4228C54.5515 50.5373 54.6067 50.6442 54.6811 50.7372C54.7555 50.8303 54.8476 50.9076 54.9522 50.9647C55.0567 51.0219 55.1715 51.0577 55.29 51.0701L56.37 51.3101C56.54 51.3101 56.63 51.4001 56.63 51.5901V51.7601C56.63 52.4201 56.56 52.4501 55.9 52.4401C54.02 52.3501 52.14 52.3701 50.29 52.4401C49.65 52.4401 49.6 52.4401 49.63 51.7501C49.63 51.3701 49.7 51.3501 50.06 51.2801L50.83 51.1401C50.9721 51.1411 51.1127 51.1119 51.2426 51.0543C51.3724 50.9967 51.4886 50.9121 51.5832 50.8061C51.6778 50.7002 51.7487 50.5753 51.7913 50.4397C51.8339 50.3042 51.8471 50.1611 51.83 50.0201L51.9 48.4401V43.7201C51.8652 43.1259 51.6941 42.5476 51.4 42.0301C51.193 41.6237 50.8784 41.2819 50.4904 41.042C50.1025 40.8022 49.6561 40.6735 49.2 40.6701C48.2263 40.6522 47.2693 40.9237 46.45 41.4501C46.1804 41.5704 45.9568 41.7746 45.8127 42.0323C45.6685 42.29 45.6114 42.5874 45.65 42.8801V46.3901L45.52 46.3301ZM89.74 46.4801V49.7901C89.74 50.0201 89.74 50.2601 89.79 50.4901C89.7992 50.6459 89.8587 50.7946 89.9597 50.9136C90.0608 51.0327 90.1977 51.1157 90.35 51.1501C90.7567 51.2701 91.1764 51.3406 91.6 51.3601C91.83 51.3601 91.88 51.4801 91.9 51.6701V51.8301C91.9 52.6501 91.78 52.7501 90.99 52.7001C89.205 52.5901 87.415 52.5901 85.63 52.7001H84.95C84.9011 52.7058 84.8518 52.6924 84.8127 52.6625C84.7735 52.6327 84.7474 52.5888 84.74 52.5401C84.6686 52.2106 84.6686 51.8696 84.74 51.5401C84.74 51.4001 84.85 51.3701 84.99 51.3301C85.34 51.3301 85.63 51.2101 85.99 51.1601C86.1111 51.1514 86.2292 51.1184 86.3372 51.0629C86.4452 51.0074 86.5408 50.9306 86.6184 50.8372C86.6959 50.7438 86.7537 50.6356 86.7884 50.5193C86.8231 50.4029 86.8338 50.2807 86.82 50.1601L86.88 48.1601V42.3901C86.8943 42.2078 86.8508 42.0256 86.7557 41.8694C86.6605 41.7132 86.5186 41.591 86.35 41.5201C85.9198 41.2936 85.4716 41.1029 85.01 40.9501C84.8694 40.917 84.7346 40.8631 84.61 40.7901C84.5406 40.7551 84.4822 40.7015 84.4415 40.6353C84.4007 40.5691 84.3791 40.4928 84.3791 40.4151C84.3791 40.3373 84.4007 40.2611 84.4415 40.1949C84.4822 40.1287 84.5406 40.0751 84.61 40.0401C84.7427 39.9287 84.9072 39.8622 85.08 39.8501C86.5748 39.6402 88.0408 39.2611 89.45 38.7201C89.61 38.6501 89.68 38.7201 89.75 38.8401C89.823 38.9852 89.8475 39.15 89.82 39.3101L89.75 40.4101C89.75 40.5501 89.68 40.7601 89.75 40.8101C89.82 40.8601 89.98 40.6901 90.1 40.6401C90.7949 40.0585 91.561 39.5679 92.38 39.1801C93.0969 38.8143 93.8958 38.6386 94.7 38.6701C95.4264 38.6967 96.1313 38.9238 96.7366 39.3262C97.342 39.7286 97.8242 40.2906 98.13 40.9501C98.4882 41.7147 98.6824 42.5459 98.7 43.3901L98.77 45.1101V50.3001C98.7602 50.4769 98.81 50.6519 98.9116 50.797C99.0131 50.9421 99.1605 51.0488 99.33 51.1001C99.7432 51.2389 100.168 51.3393 100.6 51.4001C100.98 51.4001 101 51.5201 101.02 51.8701V51.9901C101.02 52.7901 100.93 52.8101 100.13 52.7601C98.3778 52.6701 96.6222 52.6701 94.87 52.7601C94.64 52.7601 94.4 52.7601 94.19 52.7601C93.98 52.7601 93.95 52.7601 93.93 52.5901C93.8696 52.2797 93.8696 51.9605 93.93 51.6501C93.9374 51.5865 93.968 51.5278 94.016 51.4853C94.064 51.4429 94.1259 51.4197 94.19 51.4201L95.27 51.2401C95.4358 51.211 95.5877 51.129 95.703 51.0065C95.8184 50.8839 95.891 50.7273 95.91 50.5601V49.9001V44.9901C95.9227 44.4234 95.8757 43.857 95.77 43.3001C95.6519 42.7226 95.3507 42.1986 94.9111 41.8059C94.4716 41.4132 93.9171 41.1727 93.33 41.1201C92.2727 41.007 91.2097 41.2728 90.33 41.8701C90.1287 41.992 89.9639 42.166 89.853 42.3736C89.7422 42.5813 89.6893 42.815 89.7 43.0501V46.5901C89.7 46.5201 89.7 46.5201 89.7 46.5201L89.74 46.4801Z" fill="#474747"/>
<path d="M158.49 39.8299C158.257 38.1484 157.565 36.5636 156.49 35.2499C155.525 34.0713 154.281 33.1533 152.87 32.5799C151.384 32.0174 149.809 31.7294 148.22 31.7299C147.56 31.7299 138.6 31.8499 137.94 31.7299C137.867 31.7168 137.792 31.7261 137.724 31.7564C137.656 31.7867 137.599 31.8367 137.56 31.8999C137.441 32.0685 137.34 32.2496 137.26 32.4399C136.98 33.0699 136.98 33.0299 137.66 33.1199C138.213 33.1842 138.76 33.2844 139.3 33.4199C139.545 33.4734 139.769 33.5961 139.947 33.7734C140.124 33.9506 140.246 34.175 140.3 34.4199C140.3 34.6799 140.4 42.9399 140.4 46.7899L140.3 49.5399C140.286 49.7475 140.246 49.9525 140.18 50.1499C140.144 50.2892 140.077 50.4185 139.983 50.5277C139.89 50.6369 139.772 50.7232 139.64 50.7799C139.328 50.9328 138.987 51.0213 138.64 51.0399C138 51.1099 137.91 51.1399 137.7 51.8399L137.63 52.0999C137.58 52.3999 137.63 52.4499 137.91 52.4499L144.91 52.5199L147.66 52.4699L149.56 52.2399C151.683 51.8698 153.665 50.9257 155.29 49.5099C156.23 48.6681 156.995 47.6485 157.54 46.5099C158.163 45.1952 158.504 43.7644 158.54 42.3099C158.646 41.4713 158.623 40.6213 158.47 39.7899L158.49 39.8299ZM155.09 43.1599C155.043 44.6601 154.638 46.1273 153.91 47.4399C153.473 48.2778 152.858 49.0101 152.109 49.5853C151.359 50.1606 150.492 50.5649 149.57 50.7699C148.727 50.9619 147.858 51.0093 147 50.9099C146.375 50.8657 145.758 50.7482 145.16 50.5599C144.719 50.4348 144.334 50.1619 144.07 49.7869C143.806 49.4118 143.679 48.9575 143.71 48.4999V34.3399C143.71 33.4999 144.08 33.3399 144.71 33.3399C145.632 33.2598 146.558 33.2598 147.48 33.3399C148.454 33.438 149.41 33.6702 150.32 34.0299C150.999 34.3093 151.627 34.6977 152.18 35.1799C153.417 36.2269 154.312 37.62 154.75 39.1799C155.1 40.4552 155.229 41.7811 155.13 43.0999L155.09 43.1599ZM178 45.4699C178.01 45.3367 178.01 45.203 178 45.0699C177.894 44.4642 177.667 43.8862 177.332 43.3706C176.996 42.8551 176.561 42.4126 176.05 42.0699C175.361 41.5934 174.597 41.2352 173.79 41.0099C173.663 40.964 173.532 40.9273 173.4 40.8999C173.4 40.7799 173.49 40.7599 173.56 40.7299C174.035 40.5097 174.479 40.2273 174.88 39.8899C175.587 39.2977 176.093 38.5013 176.33 37.6099C176.524 36.7745 176.474 35.9011 176.187 35.093C175.9 34.2849 175.387 33.5759 174.71 33.0499C173.628 32.2766 172.33 31.8637 171 31.8699C168.46 31.8699 165.91 31.8699 163.37 31.8699C162.633 31.9061 161.894 31.8826 161.16 31.7999C161.02 31.7999 160.82 31.7399 160.72 31.8999C160.516 32.2064 160.364 32.5442 160.27 32.8999C160.27 33.0699 160.27 33.1599 160.48 33.1799L162.1 33.4199C162.377 33.4244 162.643 33.5277 162.85 33.7111C163.057 33.8944 163.192 34.1458 163.23 34.4199C163.278 34.808 163.302 35.1988 163.3 35.5899L163.25 39.9799V48.6599C163.243 49.1742 163.186 49.6865 163.08 50.1899C163.06 50.3541 162.991 50.5084 162.882 50.6332C162.773 50.7579 162.63 50.8473 162.47 50.8899C162.017 51.0529 161.541 51.1473 161.06 51.1699C160.929 51.1603 160.798 51.1942 160.687 51.2665C160.577 51.3389 160.494 51.4455 160.45 51.5699C160.357 51.7821 160.287 52.0032 160.24 52.2299C160.24 52.5099 160.24 52.6099 160.55 52.5699C160.86 52.5299 168.55 52.7399 169.96 52.5699C170.832 52.4919 171.696 52.3345 172.54 52.0999C174.024 51.6863 175.375 50.8936 176.46 49.7999C177.359 48.8999 177.881 47.6913 177.92 46.4199C177.979 46.1102 178.002 45.7949 177.99 45.4799L178 45.4699ZM166.62 35.8499L166.68 33.9699C166.672 33.8979 166.678 33.8249 166.699 33.7556C166.72 33.6862 166.755 33.6219 166.802 33.5666C166.849 33.5113 166.907 33.4662 166.972 33.4341C167.037 33.402 167.108 33.3835 167.18 33.3799C167.741 33.3098 168.309 33.3098 168.87 33.3799C169.432 33.4097 169.989 33.5036 170.53 33.6599C171.029 33.7854 171.495 34.0187 171.894 34.3435C172.293 34.6684 172.616 35.0767 172.84 35.5399C173.052 35.9868 173.161 36.4753 173.16 36.9699C173.212 37.6228 173.116 38.279 172.88 38.8899C172.717 39.3002 172.453 39.6623 172.112 39.9422C171.771 40.2221 171.364 40.4106 170.93 40.4899C169.626 40.5947 168.317 40.6248 167.01 40.5799C166.66 40.5799 166.64 40.5799 166.64 40.1899V37.9699C166.59 37.2841 166.59 36.5956 166.64 35.9099L166.62 35.8499ZM174.24 48.4799C174.062 48.9796 173.777 49.4341 173.403 49.8108C173.03 50.1876 172.578 50.4775 172.08 50.6599C171.539 50.8839 170.955 50.9863 170.37 50.9599C169.637 50.973 168.905 50.9262 168.18 50.8199C167.768 50.7141 167.4 50.4796 167.13 50.1505C166.861 49.8214 166.703 49.4148 166.68 48.9899C166.56 47.7899 166.63 46.5699 166.61 45.6799V42.5799C166.61 42.1999 166.61 42.0899 167.06 42.0899H169.27L170.77 42.2699C171.825 42.4447 172.795 42.9529 173.54 43.7199C174.129 44.3561 174.482 45.175 174.54 46.0399C174.633 46.8508 174.537 47.6721 174.26 48.4399L174.24 48.4799Z" fill="#C0C0C0"/>
<path d="M114.6 41.39L115.21 41.49C115.578 41.5383 115.952 41.45 116.259 41.2418C116.567 41.0336 116.788 40.7199 116.88 40.36C117.01 39.9228 117.01 39.4572 116.88 39.02C116.74 39.02 116.67 39.14 116.6 39.19C116.259 39.4592 115.851 39.6288 115.42 39.68C114.575 39.7936 113.714 39.7045 112.91 39.42L111.76 39.02C110.957 38.7593 110.113 38.6508 109.27 38.7C108.083 38.8122 106.932 39.1697 105.89 39.75C105.34 40.0334 104.853 40.4247 104.458 40.9007C104.063 41.3766 103.767 41.9274 103.59 42.52C103.389 43.2456 103.341 44.005 103.45 44.75C103.516 45.5401 103.807 46.2946 104.289 46.9239C104.772 47.5532 105.424 48.0309 106.17 48.3C106.26 48.3 106.33 48.37 106.43 48.39C106.53 48.41 106.66 48.63 106.43 48.79L105.85 49.19L104.44 50.06C104.368 50.0852 104.302 50.1259 104.247 50.1794C104.193 50.2328 104.151 50.2976 104.124 50.3693C104.097 50.4409 104.086 50.5175 104.093 50.5937C104.099 50.6699 104.122 50.7437 104.16 50.81C104.3 51.2491 104.56 51.6404 104.91 51.94C105.23 52.2169 105.595 52.4367 105.99 52.59C106.24 52.71 106.24 52.77 105.99 52.97L104.65 53.97C104.19 54.3033 103.764 54.6818 103.38 55.1C103.12 55.3783 102.933 55.7166 102.835 56.0847C102.737 56.4528 102.732 56.8394 102.82 57.21C102.991 58.0285 103.418 58.7711 104.04 59.33C104.653 59.8912 105.395 60.293 106.2 60.5C107.779 60.911 109.439 60.8952 111.009 60.4542C112.58 60.0131 114.006 59.1628 115.14 57.99C116.062 57.0767 116.602 55.8468 116.65 54.55C116.699 53.7718 116.471 53.0013 116.006 52.3753C115.541 51.7492 114.869 51.3081 114.11 51.13L112.84 50.89L108.97 50.55C108.551 50.5408 108.141 50.4347 107.77 50.24C107.67 50.1858 107.583 50.1112 107.514 50.0212C107.445 49.9311 107.396 49.8276 107.37 49.7173C107.343 49.607 107.34 49.4924 107.361 49.3809C107.382 49.2694 107.426 49.1635 107.49 49.07C107.584 48.9432 107.704 48.8377 107.842 48.7602C107.98 48.6826 108.133 48.6349 108.29 48.62L109.04 48.55C110.535 48.4069 111.941 47.7741 113.04 46.75C113.619 46.2105 114.032 45.5166 114.23 44.75C114.485 43.7359 114.485 42.6742 114.23 41.66C114.16 41.4 114.23 41.38 114.51 41.42L114.6 41.39ZM108.85 53.09C108.99 53.1 109.13 53.1 109.27 53.09C110.281 53.0998 111.287 53.2239 112.27 53.46C112.583 53.5548 112.887 53.6752 113.18 53.82C113.602 54.0396 113.943 54.3873 114.155 54.8131C114.367 55.2389 114.439 55.721 114.36 56.19C114.296 56.6796 114.111 57.1457 113.823 57.5469C113.535 57.9481 113.153 58.2721 112.71 58.49C112.089 58.813 111.408 59.0037 110.71 59.05C110.46 59.065 110.21 59.065 109.96 59.05C109.14 59.0976 108.32 58.9609 107.56 58.65C107.033 58.4489 106.56 58.1269 106.18 57.71C105.936 57.4844 105.741 57.2106 105.608 56.906C105.474 56.6014 105.406 56.2725 105.406 55.94C105.406 55.6075 105.474 55.2787 105.608 54.974C105.741 54.6694 105.936 54.3957 106.18 54.17C106.52 53.8079 106.935 53.5246 107.397 53.3397C107.858 53.1549 108.354 53.0731 108.85 53.1V53.09ZM111.52 45.76C111.331 46.284 110.958 46.7213 110.47 46.99C109.983 47.2587 109.414 47.3405 108.87 47.22C108.403 47.1602 107.959 46.9842 107.578 46.7081C107.198 46.4321 106.892 46.0648 106.69 45.64C106.071 44.4984 105.92 43.1607 106.27 41.91C106.351 41.4457 106.575 41.0181 106.91 40.6866C107.245 40.3551 107.675 40.1361 108.14 40.06C108.776 39.9094 109.444 39.981 110.034 40.263C110.623 40.545 111.098 41.0204 111.38 41.61C111.762 42.3892 111.934 43.2542 111.88 44.12C111.846 44.6821 111.724 45.2353 111.52 45.76ZM82 44.17C81.8218 42.917 81.2833 41.7427 80.45 40.79C79.8499 40.1184 79.1103 39.586 78.2829 39.2301C77.4555 38.8743 76.5603 38.7036 75.66 38.73C74.0631 38.7111 72.4954 39.1595 71.15 40.02C69.811 40.8221 68.8304 42.1069 68.41 43.61C68.032 44.9578 68.0078 46.3802 68.34 47.74C69.16 51.45 72.03 53.05 75.45 52.81C76.4578 52.7154 77.4385 52.4304 78.34 51.97C79.653 51.3416 80.7115 50.283 81.34 48.97C81.8826 47.843 82.1401 46.5999 82.09 45.35L81.98 44.15L82 44.17ZM78.62 49.39C78.4545 49.9224 78.1375 50.3951 77.7077 50.7503C77.278 51.1054 76.754 51.3278 76.2 51.39C75.188 51.5286 74.1618 51.2667 73.34 50.66C72.71 50.2034 72.2017 49.5991 71.86 48.9C70.9271 46.99 70.7004 44.8113 71.22 42.75C71.3812 42.0954 71.7285 41.5015 72.22 41.04C72.615 40.67 73.0974 40.4062 73.622 40.2733C74.1467 40.1403 74.6965 40.1427 75.22 40.28C76.2625 40.5161 77.1812 41.1286 77.8 42C78.4288 42.8897 78.8305 43.9196 78.97 45C79.0424 45.4835 79.0825 45.9712 79.09 46.46C79.135 47.4797 78.9822 48.4984 78.64 49.46L78.62 49.39ZM133.24 44.39C133.098 43.0331 132.519 41.7591 131.59 40.76C130.988 40.1079 130.254 39.592 129.436 39.247C128.619 38.9021 127.737 38.736 126.85 38.76C125.314 38.7498 123.805 39.1652 122.49 39.96C121.757 40.3644 121.117 40.9175 120.611 41.584C120.104 42.2505 119.743 43.0156 119.55 43.83C119.079 45.7026 119.281 47.681 120.12 49.42C120.476 50.2017 121.005 50.8923 121.666 51.4397C122.328 51.9871 123.106 52.377 123.94 52.58C125.794 53.0888 127.772 52.8818 129.48 52C130.988 51.2932 132.167 50.0326 132.77 48.48C133.139 47.4782 133.322 46.4175 133.31 45.35C133.313 45.0154 133.289 44.681 133.24 44.35V44.39ZM130 49.08C129.87 49.6734 129.558 50.2116 129.108 50.62C128.659 51.0285 128.093 51.2871 127.49 51.36C126.517 51.496 125.528 51.2604 124.72 50.7C124.016 50.2189 123.456 49.5552 123.1 48.78C122.686 47.9765 122.431 47.1004 122.35 46.2C122.191 45.1055 122.229 43.9915 122.46 42.91C122.509 42.6936 122.579 42.4825 122.67 42.28C122.935 41.5227 123.479 40.8946 124.19 40.5232C124.901 40.1518 125.727 40.0648 126.5 40.28C127.601 40.5215 128.564 41.1859 129.18 42.13C129.781 43.0632 130.151 44.1257 130.26 45.23C130.327 45.6633 130.351 46.1021 130.33 46.54C130.358 47.4135 130.239 48.2855 129.98 49.12L130 49.08Z" fill="#474747"/>
</g>
<defs>
<clipPath id="clip0_79_375">
<rect width="178" height="68.77" fill="white"/>
</clipPath>
</defs>
</svg>
