<svg width="178" height="51" viewBox="0 0 178 51" fill="none" xmlns="http://www.w3.org/2000/svg">
<g clip-path="url(#clip0_82_402)">
<path d="M163.74 17.8299C163.311 17.8222 162.887 17.9256 162.51 18.1299L150.71 24.9499C150.335 25.1698 150.024 25.4839 149.809 25.8611C149.593 26.2383 149.48 26.6654 149.48 27.0999V40.7099C149.48 41.1444 149.593 41.5715 149.809 41.9487C150.024 42.3259 150.335 42.64 150.71 42.8599L153.79 44.6399C154.611 45.1407 155.559 45.3941 156.52 45.3699C158.74 45.3699 160.01 44.0199 160.01 41.6799V28.2599C160.007 28.2152 159.996 28.1715 159.977 28.1312C159.957 28.0909 159.93 28.0549 159.896 28.0251C159.863 27.9954 159.824 27.9726 159.782 27.958C159.739 27.9433 159.695 27.9372 159.65 27.9399H158.18C158.136 27.9372 158.092 27.9434 158.05 27.9581C158.008 27.9729 157.97 27.9959 157.937 28.0257C157.905 28.0556 157.878 28.0917 157.86 28.1319C157.841 28.1721 157.831 28.2157 157.83 28.2599V41.6899C157.83 42.6899 156.75 43.7699 154.99 42.8899L151.79 41.0099C151.733 40.9819 151.685 40.9394 151.65 40.8867C151.615 40.8341 151.594 40.7731 151.59 40.7099V27.1299C151.595 27.0629 151.615 26.998 151.65 26.9406C151.685 26.8831 151.733 26.8349 151.79 26.7999L163.57 20.0099C163.624 19.9801 163.684 19.9645 163.745 19.9645C163.806 19.9645 163.866 19.9801 163.92 20.0099L175.69 26.7999C175.748 26.8336 175.797 26.8815 175.832 26.9392C175.867 26.9969 175.887 27.0625 175.89 27.1299V40.7299C175.892 40.7948 175.878 40.8593 175.848 40.9171C175.818 40.9748 175.774 41.024 175.72 41.0599L163.92 47.8499C163.866 47.8797 163.806 47.8953 163.745 47.8953C163.684 47.8953 163.624 47.8797 163.57 47.8499L160.57 46.0499C160.525 46.0225 160.473 46.0081 160.42 46.0081C160.367 46.0081 160.315 46.0225 160.27 46.0499C159.711 46.3878 159.114 46.6564 158.49 46.8499C158.29 46.9199 158 47.0199 158.59 47.3499L162.59 49.6799C162.959 49.8978 163.381 50.0118 163.81 50.0099C164.242 50.0122 164.667 49.8982 165.04 49.6799L176.84 42.8899C177.216 42.6716 177.528 42.3577 177.744 41.9802C177.96 41.6027 178.072 41.1748 178.07 40.7399V27.1299C178.072 26.695 177.96 26.2671 177.744 25.8896C177.528 25.512 177.216 25.1982 176.84 24.9799L165 18.1299C164.623 17.9243 164.199 17.8209 163.77 17.8299H163.74ZM166.9 27.5599C163.54 27.5599 161.53 28.9899 161.53 31.3599C161.53 33.9399 163.53 34.6499 166.75 34.9699C170.6 35.3499 170.91 35.9699 170.91 36.6799C170.91 37.9899 169.85 38.5599 167.37 38.5599C164.25 38.5599 163.57 37.7799 163.37 36.2199C163.358 36.1393 163.319 36.0653 163.259 36.0105C163.199 35.9558 163.121 35.9237 163.04 35.9199H161.51C161.418 35.9224 161.33 35.9601 161.265 36.0252C161.2 36.0903 161.163 36.1779 161.16 36.2699C161.16 38.2699 162.24 40.6099 167.4 40.6099C171.13 40.6099 173.29 39.1399 173.29 36.6099C173.29 34.0799 171.55 33.3799 167.92 32.8999C164.29 32.4199 163.92 32.1799 163.92 31.3299C163.92 30.4799 164.21 29.6699 166.92 29.6699C169.34 29.6699 170.24 30.1899 170.61 31.8299C170.624 31.905 170.663 31.9729 170.722 32.0221C170.78 32.0714 170.854 32.0989 170.93 32.0999H172.46C172.508 32.0992 172.555 32.0882 172.598 32.0674C172.641 32.0467 172.68 32.0168 172.71 31.9799C172.745 31.9489 172.772 31.9101 172.79 31.8667C172.807 31.8233 172.814 31.7765 172.81 31.7299C172.58 28.9199 170.7 27.5899 166.93 27.5899L166.9 27.5599Z" fill="#A5A5A5"/>
<path d="M94.36 -8.11871e-05C94.2611 -0.00142646 94.163 0.0170483 94.0714 0.054263C93.9798 0.0914777 93.8966 0.146672 93.8267 0.216586C93.7568 0.2865 93.7016 0.36972 93.6644 0.461322C93.6271 0.552924 93.6087 0.651055 93.61 0.749919V19.9199C93.611 20.0102 93.5884 20.0991 93.5446 20.178C93.5008 20.2569 93.4371 20.3231 93.36 20.3699C93.2788 20.4146 93.1877 20.438 93.095 20.438C93.0023 20.438 92.9112 20.4146 92.83 20.3699L89.7 18.5699C89.4723 18.4373 89.2135 18.3674 88.95 18.3674C88.6865 18.3674 88.4277 18.4373 88.2 18.5699L75.69 25.7799C75.4615 25.9187 75.2725 26.114 75.1412 26.3469C75.0098 26.5798 74.9406 26.8425 74.94 27.1099V41.5399C74.9398 41.8034 75.0091 42.0623 75.1407 42.2905C75.2724 42.5187 75.4618 42.7082 75.69 42.8399L88.2 50.0599C88.4277 50.1926 88.6865 50.2624 88.95 50.2624C89.2135 50.2624 89.4723 50.1926 89.7 50.0599L102.2 42.8399C102.43 42.7098 102.62 42.5206 102.752 42.292C102.884 42.0635 102.952 41.8038 102.95 41.5399V5.53992C102.949 5.27022 102.878 5.00541 102.743 4.772C102.608 4.53859 102.414 4.34477 102.18 4.20992L94.74 0.0499142C94.6206 -0.00298859 94.4904 -0.0269715 94.36 -0.0200855V-8.11871e-05ZM13.93 17.9999C13.6916 18.0002 13.4573 18.0622 13.25 18.1799L0.749998 25.3999C0.521721 25.534 0.332437 25.7255 0.200889 25.9552C0.0693404 26.185 9.12028e-05 26.4452 -1.86454e-06 26.7099V46.1299C-0.00378099 46.2618 0.0287276 46.3921 0.0939759 46.5067C0.159224 46.6214 0.254705 46.7159 0.369998 46.7799C0.482943 46.8488 0.612691 46.8853 0.744998 46.8853C0.877305 46.8853 1.00705 46.8488 1.12 46.7799L8.54 42.5199C8.7711 42.3889 8.96437 42.2003 9.10105 41.9725C9.23772 41.7448 9.31315 41.4855 9.32 41.2199V32.1299C9.3188 31.8662 9.3876 31.607 9.51937 31.3786C9.65113 31.1502 9.84114 30.9609 10.07 30.8299L13.23 28.9999C13.4578 28.8677 13.7167 28.7987 13.98 28.7999C14.243 28.801 14.5013 28.8699 14.73 28.9999L17.88 30.8299C18.1114 30.9588 18.304 31.1474 18.4377 31.376C18.5714 31.6047 18.6412 31.865 18.64 32.1299V41.1299C18.646 41.3958 18.7199 41.6557 18.8547 41.885C18.9895 42.1143 19.1806 42.3053 19.41 42.4399L26.83 46.6999C26.9429 46.7688 27.0727 46.8053 27.205 46.8053C27.3373 46.8053 27.4671 46.7688 27.58 46.6999C27.6945 46.6316 27.7895 46.535 27.856 46.4194C27.9226 46.3039 27.9583 46.1732 27.96 46.0399V26.6799C27.9619 26.4148 27.8935 26.1538 27.7618 25.9237C27.63 25.6936 27.4396 25.5025 27.21 25.3699L14.71 18.1599C14.503 18.0413 14.2685 17.9792 14.03 17.9799L13.93 17.9999ZM126.28 18.1799C126.017 18.181 125.759 18.2499 125.53 18.3799L113 25.6099C112.77 25.7404 112.579 25.9293 112.445 26.1576C112.312 26.3859 112.241 26.6455 112.24 26.9099V41.3399C112.245 41.6059 112.319 41.866 112.456 42.0941C112.593 42.3222 112.788 42.5104 113.02 42.6399L125.42 49.7099C125.647 49.8351 125.901 49.9008 126.16 49.9008C126.419 49.9008 126.673 49.8351 126.9 49.7099L134.42 45.5199C134.539 45.4573 134.638 45.3639 134.709 45.2496C134.779 45.1353 134.818 45.0041 134.82 44.8699C134.822 44.7373 134.787 44.6067 134.72 44.4921C134.653 44.3776 134.556 44.2835 134.44 44.2199L121.86 36.9999C121.742 36.9317 121.643 36.8343 121.573 36.717C121.503 36.5997 121.464 36.4664 121.46 36.3299V31.8099C121.465 31.6764 121.505 31.5465 121.575 31.4326C121.645 31.3188 121.743 31.2249 121.86 31.1599L125.77 28.9099C125.883 28.841 126.013 28.8046 126.145 28.8046C126.277 28.8046 126.407 28.841 126.52 28.9099L130.43 31.1599C130.546 31.2243 130.642 31.3186 130.709 31.433C130.776 31.5473 130.811 31.6775 130.81 31.8099V35.3699C130.808 35.5026 130.843 35.6332 130.91 35.7477C130.977 35.8622 131.074 35.9563 131.19 36.0199C131.303 36.0888 131.433 36.1253 131.565 36.1253C131.697 36.1253 131.827 36.0888 131.94 36.0199L139.43 31.6599C139.657 31.5274 139.846 31.3377 139.978 31.1097C140.11 30.8817 140.179 30.6232 140.18 30.3599V26.8799C140.181 26.6162 140.112 26.357 139.981 26.1286C139.849 25.9002 139.659 25.7109 139.43 25.5799L127 18.3899C126.771 18.2599 126.513 18.191 126.25 18.1899L126.28 18.1799ZM88.9 28.9599C88.9659 28.9452 89.0341 28.9452 89.1 28.9599L93.38 31.4399C93.4385 31.4736 93.4875 31.5215 93.5224 31.5792C93.5574 31.6369 93.5772 31.7025 93.58 31.7699V36.7699C93.5792 36.8378 93.5602 36.9042 93.525 36.9622C93.4898 37.0202 93.4398 37.0678 93.38 37.0999L89.1 39.5799C89.0411 39.6098 88.976 39.6253 88.91 39.6253C88.844 39.6253 88.7789 39.6098 88.72 39.5799L84.44 37.1299C84.3815 37.0962 84.3325 37.0483 84.2976 36.9906C84.2626 36.9329 84.2428 36.8673 84.24 36.7999V31.7999C84.2408 31.7321 84.2598 31.6657 84.295 31.6076C84.3302 31.5496 84.3802 31.5021 84.44 31.4699L88.72 28.9899C88.7791 28.9751 88.8409 28.9751 88.9 28.9899V28.9599Z" fill="#404040"/>
<path d="M51.49 18.1301C51.227 18.1312 50.9687 18.2001 50.74 18.3301L38.23 25.5301C38.0009 25.6658 37.8113 25.859 37.6797 26.0905C37.5482 26.322 37.4793 26.5838 37.48 26.8501V41.2801C37.4801 41.5449 37.5493 41.805 37.6809 42.0348C37.8124 42.2646 38.0017 42.456 38.23 42.5901L50.74 49.8001C50.9677 49.9327 51.2265 50.0026 51.49 50.0026C51.7535 50.0026 52.0123 49.9327 52.24 49.8001L64.74 42.5901C64.9708 42.458 65.1627 42.2673 65.2961 42.0373C65.4296 41.8072 65.4999 41.546 65.5 41.2801V26.8301C65.5004 26.5614 65.4304 26.2972 65.2971 26.0639C65.1638 25.8306 64.9717 25.6362 64.74 25.5001L52.24 18.3101C52.0114 18.1801 51.753 18.1112 51.49 18.1101V18.1301ZM126.26 31.0101C126.211 30.9947 126.159 30.9947 126.11 31.0101L123.7 32.4101C123.655 32.4348 123.618 32.471 123.591 32.5149C123.565 32.5588 123.551 32.6089 123.55 32.6601V35.4201C123.551 35.4713 123.565 35.5214 123.591 35.5653C123.618 35.6092 123.655 35.6454 123.7 35.6701L126.11 37.0501C126.151 37.0748 126.197 37.0879 126.245 37.0879C126.293 37.0879 126.339 37.0748 126.38 37.0501L128.79 35.6701C128.833 35.6433 128.869 35.6066 128.895 35.5632C128.921 35.5197 128.937 35.4707 128.94 35.4201V32.6601C128.939 32.6089 128.925 32.5588 128.899 32.5149C128.872 32.471 128.835 32.4348 128.79 32.4101L126.38 31.0101C126.341 30.9955 126.299 30.9955 126.26 31.0101Z" fill="#A5A5A5"/>
</g>
<defs>
<clipPath id="clip0_82_402">
<rect width="178" height="50.26" fill="white"/>
</clipPath>
</defs>
</svg>
