<svg width="178" height="47" viewBox="0 0 178 47" fill="none" xmlns="http://www.w3.org/2000/svg">
<g clip-path="url(#clip0_82_406)">
<path d="M72.32 23.7C72.32 17.8067 70.6533 14.7833 67.32 14.63C65.9859 14.5619 64.6527 14.7801 63.41 15.27C62.65 15.4736 61.9413 15.8347 61.33 16.33V30.33C62.9952 31.5353 64.9944 32.1924 67.05 32.21C70.5633 32.01 72.32 29.1733 72.32 23.7ZM76.46 23.93C76.5617 26.5694 75.8267 29.1733 74.36 31.37C73.6439 32.4423 72.6718 33.3193 71.5317 33.9216C70.3916 34.524 69.1194 34.8327 67.83 34.82C65.516 34.8127 63.2567 34.1164 61.34 32.82V45.58L57.74 44.33V16C58.3716 15.2427 59.1378 14.6087 60 14.13C62.3866 12.817 65.0766 12.1549 67.8 12.21L67.85 12.26C69.1398 12.1967 70.4227 12.4829 71.5633 13.0884C72.7039 13.6939 73.6598 14.5962 74.33 15.7C75.8327 18.1743 76.5702 21.0376 76.45 23.93H76.46ZM98.46 32.31C98.46 36.31 98.05 39.1 97.25 40.64C96.2085 42.3856 94.5713 43.696 92.64 44.33C90.7247 45.0736 88.6941 45.4764 86.64 45.52L86.06 43.25C87.6079 43.0808 89.1396 42.7865 90.64 42.37C92.1405 41.9565 93.4276 40.9876 94.24 39.66C94.7667 38.6733 95.03 36.7833 95.03 33.99V33.05C92.6002 34.1583 89.9606 34.7312 87.29 34.73C85.5782 34.7542 83.9156 34.1574 82.61 33.05C81.892 32.5132 81.3118 31.8135 80.9171 31.0085C80.5224 30.2036 80.3246 29.3164 80.34 28.42V13.42L84 12.22V27.33C83.9609 28.0307 84.081 28.7312 84.3512 29.3789C84.6213 30.0266 85.0346 30.6047 85.56 31.07C86.6923 31.968 88.1178 32.4135 89.56 32.32C91.4742 32.2015 93.314 31.535 94.86 30.4V12.76H98.46V32.33V32.31ZM112.46 34.63H111.28C109.569 34.7375 107.877 34.2186 106.52 33.17C105.956 32.6732 105.511 32.0556 105.218 31.363C104.925 30.6705 104.793 29.9209 104.83 29.17V15.02H102.4V12.76H104.87V6.76L108.46 5.48V12.77H112.46V15.03H108.46V29.11C108.403 29.6395 108.47 30.1752 108.658 30.6737C108.846 31.1722 109.148 31.6197 109.54 31.98C110.445 32.5231 111.485 32.7972 112.54 32.77V34.64L112.46 34.63ZM134.25 34.33H130.65V20.44C130.678 19.1552 130.331 17.8901 129.65 16.8C129.32 16.2587 128.853 15.8138 128.297 15.5101C127.74 15.2064 127.114 15.0546 126.48 15.07C124.83 15.07 122.76 15.94 120.29 17.68V34.33H116.69V1.13L120.29 0V15.12C122.465 13.4893 125.111 12.6086 127.83 12.61C128.695 12.5773 129.556 12.732 130.355 13.0634C131.154 13.3948 131.872 13.8951 132.46 14.53C133.679 15.827 134.339 17.5507 134.3 19.33V34.33H134.25ZM153.38 23.13C153.453 21.1833 153.012 19.2517 152.1 17.53C151.644 16.6711 150.962 15.9524 150.129 15.4504C149.296 14.9485 148.343 14.6822 147.37 14.68C143.43 14.9067 141.46 17.73 141.46 23.15C141.39 25.2933 141.81 27.4243 142.69 29.38C143.07 30.3226 143.728 31.1271 144.576 31.6863C145.425 32.2455 146.424 32.5328 147.44 32.51C151.4 32.51 153.38 29.3833 153.38 23.13ZM157.32 23.13C157.421 25.9972 156.555 28.8151 154.86 31.13C154 32.2954 152.868 33.2327 151.562 33.8602C150.257 34.4877 148.817 34.7863 147.37 34.73C145.936 34.7891 144.511 34.4911 143.221 33.8627C141.931 33.2343 140.817 32.2953 139.98 31.13C138.315 28.8024 137.464 25.9904 137.56 23.13C137.476 20.3513 138.404 17.6367 140.17 15.49C141.042 14.4232 142.147 13.5709 143.401 12.9987C144.655 12.4266 146.023 12.1499 147.4 12.19C148.787 12.1526 150.165 12.4301 151.429 13.0017C152.693 13.5732 153.812 14.424 154.7 15.49C156.466 17.6367 157.394 20.3513 157.31 23.13H157.32ZM178 34.33H174.4V19.65C174.438 18.954 174.328 18.2578 174.076 17.6078C173.824 16.9577 173.437 16.3688 172.94 15.88C172.414 15.4159 171.801 15.0617 171.137 14.8384C170.472 14.6151 169.769 14.5273 169.07 14.58C167.314 14.6276 165.615 15.2102 164.2 16.25V34.33H160.6V15.81C162.299 14.4615 164.236 13.4439 166.31 12.81C167.724 12.4128 169.182 12.1944 170.65 12.16C171.463 12.1588 172.274 12.2426 173.07 12.41C174.38 12.7057 175.578 13.3722 176.52 14.33C176.992 14.7819 177.367 15.3255 177.621 15.9273C177.876 16.5291 178.005 17.1766 178 17.83V34.33Z" fill="#646464"/>
<path d="M22.19 1.26007C20.4537 1.26308 18.7208 1.41362 17.01 1.71007C12.43 2.52007 11.6 4.21008 11.6 7.34008V11.4601H22.43V12.8401H7.53C5.93691 12.8118 4.38503 13.3471 3.14819 14.3515C1.91136 15.356 1.06908 16.7651 0.769995 18.3301C-0.253369 21.9253 -0.253369 25.7348 0.769995 29.3301C1.54 32.5401 3.38 34.8201 6.52 34.8201H10.25V29.8201C10.3036 28.0543 11.0344 26.3768 12.291 25.1351C13.5476 23.8934 15.2337 23.1826 17 23.1501H27.83C28.5474 23.1462 29.257 23.0006 29.918 22.7219C30.579 22.4431 31.1785 22.0365 31.6821 21.5256C32.1856 21.0146 32.5834 20.4092 32.8524 19.7441C33.1215 19.0791 33.2566 18.3675 33.25 17.6501V7.33007C33.25 4.39007 30.77 2.19008 27.83 1.70008C25.9654 1.39671 24.0791 1.24621 22.19 1.25007V1.26007ZM16.33 4.58007C16.7421 4.56613 17.149 4.67558 17.4985 4.89439C17.848 5.1132 18.1241 5.43141 18.2916 5.80822C18.4591 6.18502 18.5102 6.60325 18.4384 7.00929C18.3666 7.41533 18.1752 7.79068 17.8887 8.08722C17.6021 8.38375 17.2336 8.58797 16.8303 8.67368C16.4269 8.75939 16.0072 8.72269 15.6249 8.56829C15.2425 8.41388 14.915 8.14881 14.6843 7.80705C14.4536 7.46529 14.3302 7.06241 14.33 6.65007C14.3246 6.11148 14.5314 5.59239 14.9056 5.20504C15.2799 4.81768 15.7915 4.59318 16.33 4.58007Z" fill="url(#paint0_linear_82_406)"/>
<path d="M34.6 12.8401V17.6501C34.5824 19.4495 33.8666 21.1717 32.6035 22.4534C31.3405 23.7351 29.6289 24.4761 27.83 24.5201H17C15.5569 24.5462 14.1814 25.1366 13.1683 26.1646C12.1551 27.1927 11.585 28.5767 11.58 30.0201V40.3301C11.58 43.2701 14.13 45.0001 17 45.8401C20.519 46.9425 24.291 46.9425 27.81 45.8401C30.54 45.0501 33.23 43.4601 33.23 40.3301V36.2101H22.43V34.8301H38.66C41.81 34.8301 42.98 32.6301 44.08 29.3401C45.18 26.0501 45.16 22.6801 44.08 18.3401C43.3 15.2101 41.82 12.8501 38.66 12.8501L34.6 12.8401ZM28.52 38.9601C28.9325 38.9461 29.3398 39.0558 29.6895 39.2751C30.0393 39.4943 30.3154 39.8131 30.4826 40.1905C30.6498 40.5679 30.7003 40.9867 30.6277 41.393C30.5551 41.7993 30.3627 42.1747 30.0752 42.4708C29.7877 42.767 29.4182 42.9704 29.0142 43.055C28.6101 43.1396 28.1901 43.1014 27.8079 42.9455C27.4257 42.7895 27.0989 42.5229 26.8694 42.1798C26.6399 41.8367 26.5183 41.4328 26.52 41.0201C26.512 40.7524 26.5578 40.4859 26.6547 40.2363C26.7516 39.9867 26.8976 39.759 27.0842 39.5669C27.2707 39.3748 27.4939 39.2221 27.7405 39.1179C27.9872 39.0136 28.2522 38.96 28.52 38.9601Z" fill="url(#paint1_linear_82_406)"/>
</g>
<defs>
<linearGradient id="paint0_linear_82_406" x1="-1.11001" y1="2.55007" x2="23.66" y2="24.0701" gradientUnits="userSpaceOnUse">
<stop stop-color="#909090"/>
<stop offset="1" stop-color="#5D5D5D"/>
</linearGradient>
<linearGradient id="paint1_linear_82_406" x1="33.29" y1="37.1501" x2="24.44" y2="24.5101" gradientUnits="userSpaceOnUse">
<stop stop-color="#D0D0D0"/>
<stop offset="1" stop-color="#E2E2E2"/>
</linearGradient>
<clipPath id="clip0_82_406">
<rect width="178" height="46.67" fill="white"/>
</clipPath>
</defs>
</svg>
