<svg width="178" height="61" viewBox="0 0 178 61" fill="none" xmlns="http://www.w3.org/2000/svg">
<g clip-path="url(#clip0_82_396)">
<path d="M33.73 35.9699C37.0548 35.9699 39.75 33.2747 39.75 29.9499C39.75 26.6252 37.0548 23.9299 33.73 23.9299C30.4052 23.9299 27.71 26.6252 27.71 29.9499C27.71 33.2747 30.4052 35.9699 33.73 35.9699Z" fill="#9B9B9B"/>
<path d="M33.73 17.7101C40.9406 17.6043 48.1216 18.6542 55 20.8201C61.83 23.1701 66 26.7301 66 29.9501C66 33.1701 61.55 37.1001 54.22 39.5301C48.68 41.3601 41.39 42.3201 33.71 42.3201C25.84 42.3201 18.38 41.4201 12.78 39.5101C5.69 37.0801 1.42 33.2501 1.42 29.9501C1.42 26.6501 5.42 23.2201 12.16 20.8701C19.1341 18.6672 26.4171 17.6002 33.73 17.7101V17.7101Z" stroke="#9B9B9B" stroke-width="2.88" stroke-miterlimit="10"/>
<path d="M23.07 23.8701C26.5806 17.5744 31.0776 11.8822 36.39 7.01005C41.83 2.27005 47.01 0.410053 49.81 2.01005C52.61 3.61005 53.81 9.44005 52.22 17.0101C51.04 22.7301 48.22 29.5201 44.39 36.1701C40.46 43.0101 36 49.0101 31.5 52.8801C25.86 57.8101 20.4 59.6001 17.55 57.9501C14.7 56.3001 13.72 51.1201 15.05 44.1201C16.6117 36.9842 19.313 30.1465 23.05 23.8701H23.07Z" stroke="#9B9B9B" stroke-width="2.88" stroke-miterlimit="10"/>
<path d="M23.08 36.18C19.3616 29.9837 16.6607 23.2313 15.08 16.18C13.69 9.08998 14.67 3.67998 17.46 2.05998C20.25 0.439983 25.87 2.32998 31.65 7.45998C36.01 11.33 40.49 17.16 44.34 23.81C48.28 30.62 51.24 37.52 52.34 43.33C53.79 50.68 52.62 56.33 49.76 57.95C46.9 59.57 41.93 57.85 36.53 53.2C31.1269 48.28 26.5546 42.5191 22.99 36.14L23.08 36.18Z" stroke="#9B9B9B" stroke-width="2.88" stroke-miterlimit="10"/>
<path fill-rule="evenodd" clip-rule="evenodd" d="M100.59 45.3399L93.21 34.1899C95.2109 34.0689 97.0819 33.1582 98.4115 31.658C99.741 30.1578 100.42 28.1909 100.3 26.1899C100.3 21.1899 96.73 17.9399 91.73 17.9399H80.73V45.2899H84.14V34.4599H89.6L96.6 45.3199L100.59 45.3399ZM91.32 31.4799H84.15V21.0099H91.32C94.57 21.0099 96.78 23.1399 96.78 26.2199C96.7997 26.9328 96.6703 27.6418 96.4 28.3017C96.1298 28.9616 95.7247 29.5578 95.2107 30.052C94.6967 30.5463 94.0851 30.9277 93.4151 31.1719C92.7451 31.416 92.0315 31.5176 91.32 31.4699V31.4799ZM113.26 45.8299C114.708 45.8856 116.152 45.6486 117.506 45.1331C118.86 44.6177 120.096 43.8343 121.14 42.8299L119.66 40.8299C118.033 42.4364 115.837 43.335 113.55 43.3299C111.697 43.3675 109.904 42.6685 108.566 41.3862C107.227 40.1039 106.452 38.3431 106.41 36.4899H122.41V35.7099C122.41 29.7099 118.88 25.0799 112.89 25.0799C107.23 25.0799 103.13 29.7199 103.13 35.4599C103.13 41.6499 107.36 45.8599 113.22 45.8599L113.26 45.8299ZM119.41 34.1899H106.41C106.57 31.1899 108.66 27.5799 112.88 27.5799C117.41 27.5799 119.37 31.2299 119.41 34.1899ZM142.87 45.3399V31.7299C142.87 26.9299 139.39 25.0399 135.2 25.0399C133.724 24.9919 132.255 25.2597 130.891 25.8254C129.526 26.391 128.299 27.2415 127.29 28.3199L128.72 30.4599C129.469 29.586 130.401 28.8868 131.45 28.4117C132.499 27.9366 133.639 27.6971 134.79 27.7099C137.66 27.7099 139.79 29.2299 139.79 31.8899V35.4599C138.966 34.5502 137.95 33.8351 136.815 33.3664C135.681 32.8977 134.456 32.6871 133.23 32.7499C129.86 32.7499 126.29 34.8399 126.29 39.2699C126.29 43.6999 129.86 45.8299 133.23 45.8299C134.457 45.8693 135.678 45.644 136.81 45.1695C137.942 44.695 138.958 43.9823 139.79 43.0799V45.3399H142.87ZM134.34 43.6199C131.47 43.6199 129.46 41.8199 129.46 39.3099C129.46 36.7999 131.46 34.9699 134.34 34.9699C135.379 34.9236 136.415 35.1222 137.363 35.5494C138.311 35.9767 139.146 36.6209 139.8 37.4299V41.1599C139.146 41.969 138.311 42.6131 137.363 43.0404C136.415 43.4677 135.379 43.6662 134.34 43.6199ZM157.74 45.8299C159.14 45.9014 160.536 45.6246 161.803 45.0242C163.07 44.4239 164.169 43.5188 165 42.3899L163 40.4999C162.442 41.3078 161.694 41.9664 160.823 42.4179C159.951 42.8695 158.982 43.1002 158 43.0899C153.78 43.0899 151.16 39.8099 151.16 35.4199C151.16 31.0299 153.78 27.7899 158 27.7899C158.984 27.7643 159.959 27.9884 160.833 28.4413C161.708 28.8942 162.453 29.5611 163 30.3799L165 28.4899C164.173 27.3537 163.077 26.4409 161.809 25.8334C160.542 25.226 159.144 24.943 157.74 25.0099C151.84 25.0099 147.86 29.5199 147.86 35.3799C147.86 41.2399 151.86 45.7799 157.74 45.7799V45.8299ZM174.31 45.8299C174.979 45.8764 175.65 45.788 176.284 45.5698C176.918 45.3516 177.501 45.0082 178 44.5599L177.1 42.2699C176.823 42.5373 176.495 42.7474 176.137 42.8881C175.778 43.0288 175.395 43.0974 175.01 43.0899C173.66 43.0899 173.01 42.0199 173.01 40.5399V28.2399H177.01V25.5399H173.01V20.1199H169.93V25.5399H166.65V28.2399H169.93V41.2399C169.93 44.2399 171.41 45.8799 174.32 45.8799L174.31 45.8299Z" fill="#9B9B9B"/>
</g>
<defs>
<clipPath id="clip0_82_396">
<rect width="178" height="60.01" fill="white"/>
</clipPath>
</defs>
</svg>
