<svg width="178" height="45" viewBox="0 0 178 45" fill="none" xmlns="http://www.w3.org/2000/svg">
<g clip-path="url(#clip0_83_440)">
<path d="M22 5.52004H12.84V33.86H9.11V5.52004H0V2.15005H22V5.52004ZM36.43 11.22L26 37.48C24.1533 42.1467 21.5433 44.48 18.17 44.48C17.3733 44.5015 16.5778 44.4037 15.81 44.19V40.94C16.4974 41.1868 17.2199 41.3218 17.95 41.34C19.7833 41.34 21.1533 40.25 22.06 38.07L23.87 33.78L15.05 11.22H19.05L25.2 28.64C25.27 28.86 25.42 29.44 25.66 30.36H25.79L26.23 28.68L32.66 11.22H36.43ZM42.36 30.64H42.28V44.32H38.65V11.32H42.28V15.32H42.36C43.1155 13.9136 44.2489 12.7461 45.6323 11.9492C47.0158 11.1524 48.5943 10.7578 50.19 10.81C51.4838 10.7409 52.7757 10.9763 53.962 11.4973C55.1482 12.0183 56.1956 12.8105 57.02 13.81C58.7595 16.1554 59.626 19.0342 59.47 21.95C59.47 25.74 58.56 28.78 56.71 31.05C55.8079 32.1723 54.6545 33.0665 53.343 33.6606C52.0314 34.2547 50.5985 34.532 49.16 34.47C47.79 34.5052 46.436 34.1698 45.2409 33.4992C44.0457 32.8285 43.0539 31.8476 42.37 30.66L42.36 30.64ZM42.28 21.51V24.64C42.242 26.4064 42.895 28.1179 44.1 29.41C44.6803 30.0595 45.3951 30.5748 46.1947 30.9202C46.9942 31.2655 47.8593 31.4327 48.73 31.41C49.7328 31.4493 50.7297 31.2397 51.6318 30.8C52.5339 30.3603 53.3132 29.7041 53.9 28.89C55.2512 26.815 55.903 24.3621 55.76 21.89C55.9013 19.7448 55.2777 17.619 54 15.89C53.4331 15.1918 52.7115 14.635 51.8923 14.2635C51.0731 13.8921 50.1788 13.7163 49.28 13.75C48.3214 13.7152 47.367 13.8946 46.4865 14.2751C45.606 14.6557 44.8214 15.2279 44.19 15.95C42.8879 17.4839 42.2066 19.4494 42.28 21.46V21.51ZM81.47 23.51H65.47C65.3713 25.64 66.0863 27.7278 67.47 29.35C68.1711 30.0408 69.0099 30.5759 69.9317 30.9205C70.8536 31.2651 71.8378 31.4115 72.82 31.35C75.3733 31.3379 77.8448 30.4481 79.82 28.83V32.24C77.5044 33.7615 74.7679 34.5138 72 34.39C70.5932 34.4623 69.1878 34.2228 67.8843 33.6886C66.5808 33.1544 65.4115 32.3388 64.46 31.3C62.63 29.24 61.7 26.3 61.7 22.62C61.5698 19.4762 62.6426 16.4008 64.7 14.02C65.6203 12.9536 66.7638 12.1026 68.0494 11.5271C69.3351 10.9517 70.7316 10.6659 72.14 10.69C73.4258 10.621 74.7105 10.8433 75.8984 11.3402C77.0862 11.8372 78.1465 12.596 79 13.56C80.62 15.48 81.43 18.1467 81.43 21.56V23.46L81.47 23.51ZM77.74 20.44C77.8362 18.6836 77.2966 16.9512 76.22 15.56C75.7076 14.9738 75.0686 14.5117 74.3514 14.2085C73.6342 13.9054 72.8576 13.7691 72.08 13.81C71.2661 13.7961 70.4582 13.9516 69.7076 14.2666C68.957 14.5817 68.2801 15.0494 67.72 15.64C66.4782 16.9553 65.7019 18.6414 65.51 20.44H77.74ZM84.62 32.64V28.27C85.1154 28.7374 85.6702 29.1375 86.27 29.46C86.9061 29.8211 87.576 30.1192 88.27 30.35C88.9657 30.5899 89.6775 30.7804 90.4 30.92C91.0586 31.0518 91.7284 31.1187 92.4 31.12C94.0596 31.2473 95.7124 30.7988 97.08 29.85C97.6025 29.4004 98.0143 28.8362 98.2831 28.2013C98.552 27.5665 98.6707 26.8782 98.63 26.19C98.6492 25.4146 98.4702 24.6471 98.11 23.96C97.7464 23.2986 97.2612 22.7116 96.68 22.23C96.0199 21.632 95.3032 21.0995 94.54 20.64L91.86 19.14L89 17.43C88.1638 16.8981 87.3978 16.2631 86.72 15.54C86.0746 14.8499 85.5566 14.0509 85.19 13.18C84.8019 12.2007 84.6148 11.1532 84.64 10.1C84.6043 8.79418 84.9002 7.50057 85.5 6.34004C86.0563 5.29707 86.8387 4.39167 87.79 3.69005C88.7659 2.98763 89.8599 2.46603 91.02 2.15005C92.2302 1.80785 93.4823 1.63619 94.74 1.64005C97.6 1.64005 99.68 2.02005 100.99 2.76005V6.94005C99.0682 5.57484 96.7449 4.89191 94.39 5.00005C93.6429 4.99918 92.8982 5.08305 92.17 5.25005C91.4561 5.39542 90.777 5.67725 90.17 6.08005C89.5928 6.46206 89.1078 6.96758 88.75 7.56004C88.3717 8.23726 88.185 9.00473 88.21 9.78004C88.189 10.5018 88.329 11.2192 88.62 11.88C88.9196 12.4927 89.3376 13.0399 89.85 13.49C90.4661 14.0308 91.1363 14.5067 91.85 14.91L94.53 16.41L97.53 18.18C98.4206 18.7506 99.2427 19.4217 99.98 20.18C100.668 20.9178 101.232 21.7621 101.65 22.68C102.072 23.672 102.28 24.7421 102.26 25.82C102.305 27.2004 102.02 28.5715 101.43 29.82C100.897 30.87 100.118 31.7757 99.16 32.46C98.1697 33.1599 97.052 33.6592 95.87 33.93C94.5872 34.2439 93.2706 34.3984 91.95 34.39C91.3815 34.3825 90.8139 34.3424 90.25 34.27L88.19 33.91C87.5108 33.767 86.8425 33.5765 86.19 33.34C85.6522 33.153 85.1438 32.8904 84.68 32.56L84.62 32.64ZM121.51 32.89C119.628 33.9681 117.488 34.511 115.32 34.46C113.868 34.5195 112.419 34.2693 111.071 33.7262C109.723 33.1832 108.506 32.3595 107.5 31.31C105.461 29.0895 104.382 26.1526 104.5 23.14C104.34 19.8357 105.49 16.6015 107.7 14.14C108.804 12.9989 110.139 12.1056 111.614 11.5194C113.09 10.9332 114.674 10.6676 116.26 10.74C118.078 10.7039 119.881 11.0835 121.53 11.85V15.58C119.963 14.4319 118.072 13.812 116.13 13.81C115.057 13.7798 113.99 13.9873 113.006 14.4178C112.022 14.8483 111.146 15.4911 110.44 16.3C108.904 18.1193 108.111 20.4514 108.22 22.83C108.094 25.1129 108.841 27.3582 110.31 29.11C111.02 29.877 111.889 30.48 112.857 30.8772C113.824 31.2744 114.866 31.4562 115.91 31.41C117.939 31.3903 119.902 30.6856 121.48 29.41V32.85L121.51 32.89ZM135.51 14.95C134.698 14.413 133.732 14.1566 132.76 14.22C131.98 14.2276 131.214 14.4335 130.536 14.8183C129.857 15.2032 129.287 15.7544 128.88 16.42C127.743 18.2065 127.197 20.3058 127.32 22.42V33.96H123.69V11.21H127.32V15.88H127.41C127.823 14.439 128.642 13.1475 129.77 12.16C130.756 11.2987 132.021 10.8229 133.33 10.82C134.067 10.7837 134.805 10.8924 135.5 11.14L135.51 14.95ZM139.68 5.54005C139.373 5.54575 139.069 5.49032 138.784 5.37701C138.499 5.26369 138.239 5.09475 138.02 4.88004C137.793 4.66448 137.614 4.40337 137.495 4.11383C137.376 3.8243 137.32 3.51289 137.33 3.20004C137.325 2.88949 137.382 2.58101 137.498 2.29291C137.614 2.0048 137.787 1.74294 138.006 1.52284C138.225 1.30275 138.486 1.1289 138.774 1.01161C139.061 0.894323 139.369 0.835979 139.68 0.840042C140.31 0.832041 140.917 1.07282 141.37 1.51005C141.596 1.72888 141.775 1.99178 141.895 2.28246C142.016 2.57315 142.075 2.88545 142.07 3.20004C142.073 3.50986 142.012 3.81698 141.892 4.10246C141.771 4.38795 141.594 4.64577 141.37 4.86005C141.148 5.08106 140.884 5.25585 140.594 5.37428C140.304 5.49272 139.993 5.55246 139.68 5.55005V5.54005ZM141.45 33.93H137.82V11.22H141.45V33.93ZM147.29 30.66H147.21V44.34H143.6V11.34H147.23V15.34H147.31C148.065 13.9336 149.199 12.7661 150.582 11.9693C151.966 11.1724 153.544 10.7778 155.14 10.83C156.434 10.7609 157.726 10.9963 158.912 11.5173C160.098 12.0383 161.146 12.8305 161.97 13.83C163.709 16.1754 164.576 19.0542 164.42 21.97C164.42 25.76 163.51 28.8 161.67 31.07C160.764 32.1906 159.609 33.0836 158.296 33.6775C156.983 34.2713 155.55 34.5496 154.11 34.49C152.74 34.5252 151.386 34.1898 150.191 33.5191C148.996 32.8485 148.004 31.8676 147.32 30.68L147.29 30.66ZM147.21 21.53V24.64C147.17 26.4068 147.823 28.1191 149.03 29.41C149.61 30.0595 150.325 30.5748 151.125 30.9202C151.924 31.2655 152.789 31.4327 153.66 31.41C154.663 31.4493 155.66 31.2397 156.562 30.8C157.464 30.3603 158.243 29.7041 158.83 28.89C160.184 26.8162 160.836 24.3624 160.69 21.89C160.846 19.757 160.248 17.6368 159 15.9C158.432 15.1998 157.709 14.641 156.888 14.2679C156.067 13.8948 155.171 13.7175 154.27 13.75C153.311 13.7152 152.357 13.8946 151.477 14.2751C150.596 14.6557 149.811 15.2279 149.18 15.95C147.876 17.4834 147.191 19.4483 147.26 21.46L147.21 21.53ZM178 33.64C176.949 34.1519 175.787 34.3925 174.62 34.34C170.66 34.34 168.66 32.13 168.62 27.71V14.32H164.72V11.22H168.62V5.70004L172.25 4.53004V11.22H178V14.32H172.3V27.07C172.202 28.2079 172.472 29.3472 173.07 30.32C173.39 30.6742 173.787 30.9489 174.232 31.1225C174.676 31.2961 175.155 31.3637 175.63 31.32C176.483 31.3431 177.319 31.0751 178 30.56V33.64Z" fill="#5E5E5E"/>
</g>
<defs>
<clipPath id="clip0_83_440">
<rect width="178" height="43.74" fill="white" transform="translate(0 0.77002)"/>
</clipPath>
</defs>
</svg>
