<svg width="178" height="63" viewBox="0 0 178 63" fill="none" xmlns="http://www.w3.org/2000/svg">
<g clip-path="url(#clip0_81_387)">
<path fill-rule="evenodd" clip-rule="evenodd" d="M58.59 0.0100098H73L36.62 62.7L0 0.0100098H14.73L36.62 37.75L58.59 0.0100098Z" fill="#8E8E8E"/>
<path fill-rule="evenodd" clip-rule="evenodd" d="M45 0H58.68L36.6 37.82L14.7 0H28.19L36.6 14.56L45 0Z" fill="#454545"/>
<path fill-rule="evenodd" clip-rule="evenodd" d="M81.59 12.35C81.6026 12.1067 81.6809 11.8713 81.8164 11.6688C81.952 11.4664 82.1398 11.3044 82.36 11.2C82.8546 10.9026 83.4229 10.7501 84 10.76C84.3051 10.7144 84.6165 10.7762 84.8811 10.9349C85.1456 11.0936 85.3467 11.3393 85.45 11.63L93.67 39.11L101.84 11.63C101.942 11.3487 102.135 11.1098 102.389 10.952C102.643 10.7941 102.943 10.7265 103.24 10.76C103.827 10.7616 104.401 10.9355 104.89 11.26C105.108 11.3702 105.293 11.535 105.428 11.7383C105.563 11.9417 105.643 12.1765 105.66 12.42C105.668 12.4663 105.668 12.5137 105.66 12.56C105.65 12.6196 105.65 12.6804 105.66 12.74L96.18 43.5C95.9702 43.9617 95.6155 44.3424 95.1697 44.5843C94.724 44.8261 94.2114 44.9159 93.71 44.84C92.4 44.84 91.61 44.39 91.33 43.5L81.69 12.74C81.6419 12.6211 81.6083 12.4969 81.59 12.37V12.35ZM106 36.05V24.05C106.006 23.8482 106.062 23.6509 106.163 23.4762C106.264 23.3016 106.408 23.155 106.58 23.05C106.983 22.7656 107.467 22.6184 107.96 22.63C108.44 22.6256 108.908 22.7803 109.29 23.07C109.464 23.1745 109.609 23.3207 109.712 23.4953C109.815 23.6699 109.872 23.8674 109.88 24.07V36.07C109.882 36.7685 110.023 37.4596 110.294 38.1033C110.565 38.747 110.962 39.3305 111.46 39.82C111.939 40.34 112.52 40.7551 113.167 41.039C113.814 41.323 114.513 41.4696 115.22 41.4696C115.927 41.4696 116.626 41.323 117.273 41.039C117.92 40.7551 118.501 40.34 118.98 39.82C119.482 39.3292 119.881 38.7426 120.152 38.0951C120.423 37.4475 120.562 36.7521 120.56 36.05V23.98C120.574 23.7897 120.636 23.606 120.739 23.4454C120.842 23.2848 120.983 23.1524 121.15 23.06C121.56 22.796 122.037 22.6556 122.525 22.6556C123.013 22.6556 123.49 22.796 123.9 23.06C124.061 23.1618 124.195 23.3017 124.289 23.4674C124.383 23.6331 124.435 23.8195 124.44 24.01V36.05C124.443 37.2197 124.202 38.3772 123.732 39.4483C123.262 40.5193 122.573 41.4804 121.71 42.27C119.979 43.9799 117.643 44.9388 115.21 44.9388C112.777 44.9388 110.441 43.9799 108.71 42.27C107.851 41.4787 107.166 40.5168 106.699 39.4458C106.232 38.3748 105.994 37.2182 106 36.05ZM127.61 35.96V31.1C127.605 29.9402 127.845 28.7925 128.316 27.7325C128.787 26.6724 129.476 25.7241 130.34 24.95C131.207 24.1074 132.232 23.4441 133.356 22.998C134.48 22.5518 135.681 22.3317 136.89 22.35C139.228 22.3153 141.489 23.1861 143.2 24.78C144.057 25.5403 144.739 26.4778 145.198 27.5275C145.658 28.5773 145.883 29.7144 145.86 30.86C145.887 31.5911 145.775 32.3207 145.53 33.01C145.351 33.5068 144.995 33.9199 144.53 34.17C144.136 34.3824 143.711 34.5309 143.27 34.61C142.75 34.6782 142.225 34.7083 141.7 34.7H131.48V36.09C131.45 36.8646 131.601 37.6355 131.92 38.3419C132.24 39.0482 132.719 39.6707 133.32 40.16C134.683 41.2243 136.382 41.7669 138.11 41.69C139.025 41.7088 139.936 41.5492 140.79 41.22C141.43 40.9699 142.048 40.669 142.64 40.32C142.969 40.0782 143.355 39.9265 143.76 39.88C143.979 39.8815 144.195 39.9349 144.39 40.0357C144.584 40.1365 144.752 40.2819 144.88 40.46C145.165 40.7883 145.328 41.2053 145.34 41.64C145.34 42.35 144.64 43.07 143.22 43.81C141.585 44.5977 139.784 44.9785 137.97 44.92C135.262 45.0373 132.604 44.1586 130.5 42.45C129.558 41.656 128.808 40.6584 128.307 39.5324C127.807 38.4064 127.568 37.1815 127.61 35.95V35.96ZM131.48 32.12H140.12C140.681 32.1718 141.245 32.068 141.75 31.82C141.909 31.6709 142.03 31.486 142.103 31.2808C142.176 31.0756 142.199 30.8559 142.17 30.64C142.146 29.2456 141.575 27.9165 140.58 26.9398C139.584 25.9631 138.245 25.4172 136.85 25.42C135.45 25.3959 134.095 25.9156 133.07 26.87C132.561 27.3175 132.155 27.8703 131.88 28.4902C131.606 29.1101 131.469 29.7822 131.48 30.46V32.12ZM147.81 42.44C147.806 42.1181 147.865 41.7984 147.985 41.4997C148.106 41.201 148.284 40.9292 148.51 40.7C148.732 40.4663 149.001 40.2815 149.299 40.1576C149.597 40.0336 149.917 39.9731 150.24 39.98C150.555 39.977 150.866 40.0395 151.156 40.1634C151.445 40.2874 151.705 40.4701 151.92 40.7C152.148 40.9278 152.328 41.1994 152.448 41.4985C152.568 41.7975 152.627 42.1178 152.62 42.44C152.623 42.7528 152.563 43.0631 152.442 43.3518C152.322 43.6406 152.144 43.902 151.92 44.12C151.705 44.3499 151.445 44.5326 151.156 44.6566C150.866 44.7805 150.555 44.843 150.24 44.84C149.917 44.8469 149.597 44.7864 149.299 44.6624C149.001 44.5385 148.732 44.3537 148.51 44.12C148.287 43.9006 148.111 43.639 147.991 43.3505C147.871 43.062 147.809 42.7525 147.81 42.44ZM151.26 53.44C151.248 52.9841 151.417 52.542 151.73 52.21C151.873 52.0561 152.046 51.9338 152.239 51.8512C152.432 51.7685 152.64 51.7272 152.85 51.73C153.338 51.7887 153.831 51.6904 154.259 51.4494C154.687 51.2085 155.027 50.8374 155.23 50.39C155.659 49.102 155.849 47.7463 155.79 46.39V23.98C155.784 23.7816 155.829 23.585 155.922 23.4096C156.015 23.2342 156.152 23.0861 156.32 22.98C156.731 22.7176 157.213 22.5884 157.7 22.61C158.193 22.5895 158.681 22.7184 159.1 22.98C159.275 23.08 159.42 23.2259 159.519 23.4021C159.618 23.5783 159.666 23.7781 159.66 23.98V46.41C159.777 48.6475 159.223 50.8689 158.07 52.79C157.546 53.5685 156.827 54.1961 155.985 54.6101C155.143 55.0242 154.207 55.2104 153.27 55.15C151.93 55.15 151.27 54.6 151.27 53.49L151.26 53.44ZM155.26 14.36C155.259 14.0694 155.32 13.782 155.441 13.5178C155.562 13.2536 155.739 13.0189 155.96 12.83C156.432 12.4013 157.052 12.1719 157.69 12.19C158.312 12.1755 158.915 12.4052 159.37 12.83C159.591 13.0189 159.768 13.2536 159.889 13.5178C160.01 13.782 160.071 14.0694 160.07 14.36C160.07 14.6532 160.007 14.943 159.887 15.2102C159.766 15.4774 159.59 15.7159 159.37 15.91C159.149 16.1285 158.887 16.3004 158.598 16.4155C158.309 16.5306 158.001 16.5865 157.69 16.58C157.057 16.5896 156.446 16.3488 155.99 15.91C155.765 15.7187 155.583 15.4814 155.457 15.2141C155.331 14.9467 155.264 14.6555 155.26 14.36ZM162.54 41.36C162.544 40.9341 162.684 40.5207 162.94 40.18C163.039 40.0022 163.184 39.8545 163.36 39.7524C163.536 39.6504 163.737 39.5977 163.94 39.6C164.347 39.6766 164.723 39.8713 165.02 40.16C165.635 40.6092 166.307 40.9725 167.02 41.24C168.002 41.6154 169.049 41.7955 170.1 41.77C171.29 41.8724 172.482 41.5808 173.49 40.94C173.818 40.7017 174.084 40.3887 174.266 40.0269C174.449 39.6652 174.543 39.2652 174.54 38.86C174.556 38.3906 174.457 37.9244 174.254 37.5013C174.05 37.0781 173.747 36.7106 173.37 36.43C172.521 35.7964 171.556 35.3344 170.53 35.07C169.4 34.76 168.28 34.42 167.16 34.07C166.066 33.7162 165.086 33.0777 164.32 32.22C163.508 31.2708 163.09 30.0474 163.15 28.8C163.141 27.9612 163.3 27.1291 163.618 26.3528C163.935 25.5765 164.405 24.8717 165 24.28C166.26 22.9933 168.183 22.35 170.77 22.35C172.311 22.3343 173.842 22.5951 175.29 23.12C176.66 23.63 177.35 24.2 177.35 24.85C177.323 25.3012 177.167 25.735 176.9 26.1C176.796 26.3012 176.64 26.4711 176.448 26.5924C176.257 26.7136 176.037 26.7818 175.81 26.79C175.192 26.6196 174.589 26.3954 174.01 26.12C172.998 25.689 171.91 25.4613 170.81 25.45C169.654 25.3566 168.507 25.7151 167.61 26.45C167.286 26.7272 167.024 27.0705 166.843 27.4567C166.662 27.843 166.566 28.2634 166.56 28.69C166.56 29.0973 166.668 29.4973 166.873 29.8489C167.079 30.2005 167.375 30.4908 167.73 30.69C168.617 31.23 169.587 31.6218 170.6 31.85C171.746 32.1254 172.878 32.4592 173.99 32.85C175.115 33.2489 176.101 33.9642 176.83 34.91C177.647 35.992 178.061 37.3254 178 38.68C178.036 39.5428 177.87 40.4021 177.514 41.1889C177.158 41.9757 176.622 42.6679 175.95 43.21C174.282 44.4097 172.251 44.9962 170.2 44.87C168.333 44.9216 166.48 44.5346 164.79 43.74C163.3 42.98 162.55 42.19 162.55 41.36H162.54Z" fill="#010101"/>
</g>
<defs>
<clipPath id="clip0_81_387">
<rect width="178" height="62.7" fill="white"/>
</clipPath>
</defs>
</svg>
